<?xml version="1.0" encoding="UTF-8" standalone="no"?>
<!-- Generator: Adobe Illustrator 23.0.3, SVG Export Plug-In . SVG Version: 6.00 Build 0)  -->

<svg
   xmlns:dc="http://purl.org/dc/elements/1.1/"
   xmlns:cc="http://creativecommons.org/ns#"
   xmlns:rdf="http://www.w3.org/1999/02/22-rdf-syntax-ns#"
   xmlns:svg="http://www.w3.org/2000/svg"
   xmlns="http://www.w3.org/2000/svg"
   xmlns:xlink="http://www.w3.org/1999/xlink"
   xmlns:sodipodi="http://sodipodi.sourceforge.net/DTD/sodipodi-0.dtd"
   xmlns:inkscape="http://www.inkscape.org/namespaces/inkscape"
   version="1.1"
   x="0px"
   y="0px"
   viewBox="0 0 817.63688 514.59999"
   xml:space="preserve"
   id="svg2181"
   sodipodi:docname="Résilience-05.svg"
   width="817.6369"
   height="514.59998"
   inkscape:version="0.92.4 (5da689c313, 2019-01-14)"><metadata
   id="metadata2187"><rdf:RDF><cc:Work
       rdf:about=""><dc:format>image/svg+xml</dc:format><dc:type
         rdf:resource="http://purl.org/dc/dcmitype/StillImage" /><dc:title></dc:title></cc:Work></rdf:RDF></metadata><defs
   id="defs2185">
	
		
	
	
	
	
	
	
	
	
	
	
	
	
	
	
	
	
	
	
	
	
	
	
	
	
	
	
	
	
</defs><sodipodi:namedview
   pagecolor="#ffffff"
   bordercolor="#666666"
   borderopacity="1"
   objecttolerance="10"
   gridtolerance="10"
   guidetolerance="10"
   inkscape:pageopacity="0"
   inkscape:pageshadow="2"
   inkscape:window-width="1920"
   inkscape:window-height="1027"
   id="namedview2183"
   showgrid="false"
   fit-margin-top="40"
   fit-margin-left="40"
   fit-margin-right="40"
   fit-margin-bottom="40"
   inkscape:zoom="1.019146"
   inkscape:cx="440.46105"
   inkscape:cy="181.7648"
   inkscape:window-x="-8"
   inkscape:window-y="-8"
   inkscape:window-maximized="1"
   inkscape:current-layer="svg2181" />
<style
   type="text/css"
   id="style1502">
	.st0{fill:#403F5A;}
	.st1{fill:#D5B12A;}
	.st2{fill:#FFFFFF;}
	.st3{fill:#BA3229;}
	.st4{fill:#665E7A;}
	.st5{fill:#996527;}
	.st6{fill:#173F6E;}
	.st7{fill:#7A7A31;}
	.st8{fill:none;stroke:#2875BB;stroke-width:1.5;stroke-miterlimit:10;}
	.st9{fill:#231F20;}
	.st10{fill:none;stroke:#FFFFFF;stroke-width:0.452;stroke-linecap:round;stroke-linejoin:round;stroke-miterlimit:10;}
	.st11{fill:#317BBF;}
	.st12{fill:#221F20;}
	.st13{fill:none;stroke:#403F5A;stroke-width:3.425;stroke-linecap:round;stroke-miterlimit:10;}
	.st14{fill:none;stroke:#403F5A;stroke-width:3.425;stroke-linecap:round;stroke-miterlimit:10;stroke-dasharray:0,6.8504;}
	.st15{fill:#7B7A31;}
	.st16{fill:none;}
	.st17{fill:#726E72;}
	.st18{font-family:'SegoeUI-Light';}
	.st19{font-size:10px;}
	.st20{font-family:'SegoeUI-LightItalic';}
	.st21{fill:none;stroke:#403F5A;stroke-miterlimit:10;}
	.st22{fill:none;stroke:#173F6E;stroke-miterlimit:10;}
	.st23{fill:none;stroke:#D5B12A;stroke-miterlimit:10;}
	.st24{fill:none;stroke:#7B7A31;stroke-miterlimit:10;}
	.st25{fill:none;stroke:#996527;stroke-miterlimit:10;}
	.st26{display:none;opacity:0.5;}
	.st27{clip-path:url(#SVGID_6_);}
	.st28{fill:#F1EDE3;}
	.st29{fill:#413F5A;}
	.st30{fill:#E2E2E2;}
	.st31{fill:none;stroke:#1B325B;stroke-width:0.452;stroke-miterlimit:10;}
	.st32{fill:#552F61;}
	.st33{fill:none;stroke:#FFFFFF;stroke-width:0.452;stroke-miterlimit:10;}
	.st34{fill:#E76F6D;}
	.st35{fill:#A64A62;}
	.st36{fill:#4C2554;}
	.st37{fill:#6E3860;}
	.st38{fill:#F58B6E;}
	.st39{fill:none;stroke:#413F5A;stroke-width:0.904;stroke-miterlimit:10;}
	.st40{fill:#ECE9D8;}
	.st41{fill:#FFD98B;}
	.st42{fill:#FAAF76;}
	.st43{fill:#FAEFBD;}
	.st44{display:none;fill:#202225;}
	.st45{fill:#2875BB;}
	.st46{fill:#5B7F9A;}
	.st47{fill:#203744;}
	.st48{fill:#455A69;}
	.st49{fill:#214651;}
	.st50{fill:#625C70;}
	.st51{fill:#414156;}
	.st52{fill:#383442;}
	.st53{fill:#B78D39;}
	.st54{fill:#7D663D;}
	.st55{fill:#544E44;}
	.st56{fill:#5E5E29;}
	.st57{fill:#1A5488;}
	.st58{display:none;}
	.st59{display:inline;}
	.st60{fill:none;stroke:#F05253;stroke-width:0.5;stroke-miterlimit:10;}
	.st61{fill:none;stroke:#F05253;stroke-width:0.5;stroke-miterlimit:10;stroke-dasharray:13.6631,13.6631;}
	.st62{fill:none;stroke:#F05253;stroke-width:0.5;stroke-miterlimit:10;stroke-dasharray:12.1231,12.1231;}
	.st63{fill:none;stroke:#F05253;stroke-width:0.5;stroke-miterlimit:10;stroke-dasharray:11.8674,11.8674;}
	.st64{fill:none;stroke:#F05253;stroke-width:0.5;stroke-miterlimit:10;stroke-dasharray:12.2384,12.2384;}
</style>
<flowRoot
   xml:space="preserve"
   id="flowRoot2452"
   style="font-style:normal;font-weight:normal;font-size:40px;line-height:1.25;font-family:sans-serif;text-align:end;letter-spacing:0px;word-spacing:0px;text-anchor:end;fill:#726e72;fill-opacity:1;stroke:none"
   transform="translate(-62.218527,-122.99909)"><flowRegion
     id="flowRegion2454"
     style="text-align:end;text-anchor:end;fill:#726e72;fill-opacity:1"><rect
       id="rect2456"
       width="725.73865"
       height="65.913155"
       x="145.00897"
       y="580.72974"
       style="text-align:end;text-anchor:end;fill:#726e72;fill-opacity:1" /></flowRegion><flowPara
     id="flowPara2458"
     style="font-style:normal;font-variant:normal;font-weight:normal;font-stretch:normal;font-size:10.66666698px;line-height:1;font-family:'Segoe UI';-inkscape-font-specification:'Segoe UI';text-align:end;text-anchor:end;fill:#726e72;fill-opacity:1">D’après Les Greniers d’Abondance et Tendall et al. (2015).  « Food system resilience: Defining the concept ». Global Food Security. 6. 17-23. </flowPara></flowRoot><g
   id="Courbe"
   transform="translate(-13,-66.4)">
</g>

<image
   sodipodi:absref="C:\Users\Mewen\Documents\Pro\Enjeux environementaux, ingé low tech\Posts de blog\2021-08 Le travail\CD489393.jpg"
   xlink:href="CD489393.jpg"
   y="13.814501"
   x="-49.359699"
   style="display:none;overflow:visible;opacity:0.4"
   width="878.25171"
   height="474.45029"
   id="image1518">
	</image><g
   id="g1550"
   transform="translate(-13,-66.4)">
		<polygon
   style="fill:#ba3229"
   id="polygon1520"
   points="124.4,514 125,148.9 140.1,152.5 156.2,150.3 156.5,514 "
   class="st3" />
		<g
   id="g1548">
			<g
   id="g1546">
				<path
   style="fill:#ffffff"
   inkscape:connector-curvature="0"
   id="path1522"
   d="m 130,389 c -0.2,-1 -0.4,-2.3 -0.4,-3.8 0,-2.1 0.4,-3.8 1.5,-5 1,-1.1 2.6,-1.6 4.3,-1.6 2,0 3.5,0.6 4.5,1.5 1.4,1.2 2.1,3.1 2.1,4.9 0,0.3 0,0.6 0,0.9 h 7.9 v 3.2 H 130 Z m 9.4,-3.1 c 0,-0.2 0.1,-0.5 0.1,-0.8 0,-2.1 -1.4,-3.3 -3.8,-3.3 -1.9,0 -3.5,0.8 -3.5,2.9 0,0.4 0.1,0.8 0.2,1.1 h 7 z"
   class="st2" />
				<path
   style="fill:#ffffff"
   inkscape:connector-curvature="0"
   id="path1524"
   d="m 143.4,371 v 3.4 h 4.5 v -3.8 h 1.9 v 6.1 h -14.2 v -5.8 h 1.9 v 3.6 h 3.9 V 371 Z"
   class="st2" />
				<path
   style="fill:#ffffff"
   inkscape:connector-curvature="0"
   id="path1526"
   d="m 135.9,368.7 c -0.2,-0.8 -0.3,-1.8 -0.3,-2.7 0,-1.5 0.3,-2.7 1,-3.5 0.7,-0.8 1.7,-1.1 2.9,-1.1 1.6,0 2.9,0.8 3.6,2.2 v 0 c 0.4,-1 1.3,-1.5 3,-1.8 1.7,-0.3 3.2,-0.6 3.7,-0.9 v 2.3 c -0.4,0.2 -1.8,0.5 -3.4,0.7 -1.8,0.3 -2.4,0.8 -2.4,1.9 v 0.5 h 5.9 v 2.2 h -14 z m 6.4,-2.2 v -0.6 c 0,-1.3 -1,-2.2 -2.5,-2.2 -1.4,0 -2.3,0.6 -2.4,2 0,0.3 0,0.6 0.1,0.8 z"
   class="st2" />
				<path
   style="fill:#ffffff"
   inkscape:connector-curvature="0"
   id="path1528"
   d="m 137.8,357.9 v 2.5 h -2.1 v -7.3 h 2.1 v 2.5 h 12.1 v 2.2 h -12.1 z"
   class="st2" />
				<path
   style="fill:#ffffff"
   inkscape:connector-curvature="0"
   id="path1530"
   d="m 135.7,349.4 h 9.3 c 2.3,0 3,-0.7 3,-1.6 0,-1 -0.7,-1.6 -3,-1.6 h -9.3 V 344 h 8.9 c 3.7,0 5.4,1.4 5.4,3.9 0,2.6 -1.8,3.8 -5.3,3.8 h -9 z"
   class="st2" />
				<path
   style="fill:#ffffff"
   inkscape:connector-curvature="0"
   id="path1532"
   d="m 135.9,341.4 c -0.2,-0.8 -0.3,-1.8 -0.3,-2.7 0,-1.5 0.3,-2.7 1,-3.5 0.7,-0.8 1.7,-1.1 2.9,-1.1 1.6,0 2.9,0.8 3.6,2.2 v 0 c 0.4,-1 1.3,-1.5 3,-1.8 1.7,-0.3 3.2,-0.6 3.7,-0.9 v 2.3 c -0.4,0.2 -1.8,0.5 -3.4,0.7 -1.8,0.3 -2.4,0.8 -2.4,1.9 v 0.5 h 5.9 v 2.2 h -14 z m 6.4,-2.2 v -0.6 c 0,-1.3 -1,-2.2 -2.5,-2.2 -1.4,0 -2.3,0.6 -2.4,2 0,0.3 0,0.6 0.1,0.8 z"
   class="st2" />
				<path
   style="fill:#ffffff"
   inkscape:connector-curvature="0"
   id="path1534"
   d="m 135.9,332.1 c -0.2,-0.8 -0.3,-1.7 -0.3,-2.8 0,-1.3 0.2,-2.5 1,-3.4 0.6,-0.7 1.5,-1 2.5,-1 1.3,0 2.5,0.7 3.1,2.1 h 0.1 c 0.5,-1.6 1.8,-2.6 3.5,-2.6 1.2,0 2.1,0.4 2.8,1 0.9,0.8 1.4,2.2 1.4,4.2 0,1 -0.1,1.8 -0.1,2.4 h -14 z m 5.7,-2.2 v -0.7 c 0,-1.1 -0.9,-2.1 -2.2,-2.1 -1.2,0 -2.1,0.5 -2.1,1.9 0,0.3 0,0.6 0.1,0.8 h 4.2 z m 6.6,0 c 0,-0.2 0.1,-0.4 0.1,-0.7 0,-1.4 -0.8,-2.4 -2.4,-2.4 -1.7,0 -2.5,1.1 -2.5,2.4 v 0.6 h 4.8 z"
   class="st2" />
				<path
   style="fill:#ffffff"
   inkscape:connector-curvature="0"
   id="path1536"
   d="m 146.2,320.6 3.7,0.8 v 2.2 l -14.2,-3.1 v -2.6 l 14.2,-2.9 v 2.2 l -3.7,0.8 z m -1.8,-2.5 -3.2,0.6 c -0.9,0.2 -2.2,0.4 -3.2,0.5 v 0.1 c 1,0.2 2.3,0.4 3.2,0.5 l 3.2,0.6 z"
   class="st2" />
				<path
   style="fill:#ffffff"
   inkscape:connector-curvature="0"
   id="path1538"
   d="m 137.8,311.6 v 2.5 h -2.1 v -7.3 h 2.1 v 2.5 h 12.1 v 2.2 h -12.1 z"
   class="st2" />
				<path
   style="fill:#ffffff"
   inkscape:connector-curvature="0"
   id="path1540"
   d="m 135.7,303.1 h 14.2 v 2.2 h -14.2 z"
   class="st2" />
				<path
   style="fill:#ffffff"
   inkscape:connector-curvature="0"
   id="path1542"
   d="m 142.6,292.7 c 5.3,0 7.4,1.9 7.4,4.4 0,2.8 -3,4.2 -7.3,4.2 -4.2,0 -7.2,-1.6 -7.2,-4.4 0.1,-3.1 3.3,-4.2 7.1,-4.2 z m 0.2,6.2 c 3.1,0 5.3,-0.6 5.3,-2 0,-1.5 -2.5,-1.9 -5.4,-1.9 -2.6,0 -5.2,0.4 -5.2,1.9 0,1.4 2.3,2 5.3,2 z"
   class="st2" />
				<path
   style="fill:#ffffff"
   inkscape:connector-curvature="0"
   id="path1544"
   d="m 149.9,290.8 h -14.2 v -2.1 l 6,-2.4 c 1.3,-0.5 3.1,-1.2 4.5,-1.6 v 0 c -1.8,0.1 -4,0.2 -6.5,0.2 h -4 v -2 h 14.2 v 2.1 l -6,2.4 c -1.3,0.5 -3,1.1 -4.5,1.6 v 0 c 1.6,-0.1 3.6,-0.2 6.6,-0.2 h 4 v 2 z"
   class="st2" />
			</g>
		</g>
	</g><g
   id="g1614"
   transform="translate(-13,-66.4)">
		<g
   id="g1612">
			<path
   style="fill:#231f20"
   inkscape:connector-curvature="0"
   id="path1552"
   d="m 63.3,424.6 c 0.4,-0.6 0.7,-1.5 0.7,-2.3 0,-1.4 -0.8,-2.3 -1.9,-2.3 -1.1,0 -1.7,0.6 -2.3,2 -0.7,1.6 -1.7,2.8 -3.2,2.8 -1.8,0 -3.1,-1.4 -3.1,-3.5 0,-1 0.3,-1.8 0.5,-2.3 l 1.2,0.4 c -0.2,0.3 -0.5,1 -0.5,1.9 0,1.4 0.9,2 1.7,2 1.1,0 1.6,-0.7 2.2,-2.1 0.8,-1.8 1.8,-2.6 3.4,-2.6 1.8,0 3.3,1.3 3.3,3.8 0,1 -0.3,2.1 -0.7,2.6 z"
   class="st9" />
			<path
   style="fill:#231f20"
   inkscape:connector-curvature="0"
   id="path1554"
   d="m 53.2,411.5 2.4,2 v 1 l -2.4,-1.4 z m 7.9,4.4 c 2.2,0 2.9,-1.2 2.9,-2.6 0,-0.9 -0.2,-1.5 -0.4,-2 l 1,-0.2 c 0.2,0.5 0.5,1.4 0.5,2.5 0,2.4 -1.7,3.7 -4.1,3.7 -2.5,0 -4.4,-1.4 -4.4,-3.5 0,-2.4 2.2,-3.1 3.8,-3.1 0.3,0 0.5,0 0.7,0 z M 60,412 c -1.2,0 -2.4,0.4 -2.4,1.8 0,1.3 1.3,1.9 2.4,2 z"
   class="st9" />
			<path
   style="fill:#231f20"
   inkscape:connector-curvature="0"
   id="path1556"
   d="m 64.7,403.6 c 0.2,0.4 0.4,1.1 0.4,2.1 0,2.3 -1.6,3.8 -4.2,3.8 -2.5,0 -4.4,-1.6 -4.4,-4.1 0,-0.8 0.2,-1.4 0.4,-1.8 l 1.1,0.3 c -0.2,0.3 -0.3,0.8 -0.3,1.5 0,1.7 1.5,2.6 3.1,2.6 1.9,0 3.1,-1.1 3.1,-2.6 0,-0.7 -0.2,-1.2 -0.3,-1.6 z"
   class="st9" />
			<path
   style="fill:#231f20"
   inkscape:connector-curvature="0"
   id="path1558"
   d="m 62.7,395.7 c 0.9,0 1.6,0 2.2,-0.1 v 1.3 l -1.2,0.1 v 0 c 0.6,0.3 1.4,1.1 1.4,2.4 0,1.3 -0.8,2.6 -3.5,2.6 h -4.9 v -1.4 h 4.7 c 1.5,0 2.5,-0.4 2.5,-1.6 0,-0.9 -0.7,-1.5 -1.3,-1.7 -0.2,-0.1 -0.5,-0.1 -0.8,-0.1 h -5.2 v -1.4 h 6.1 z"
   class="st9" />
			<path
   style="fill:#231f20"
   inkscape:connector-curvature="0"
   id="path1560"
   d="m 59.2,393.4 c -0.9,0 -1.7,0 -2.4,0.1 v -1.3 l 1.5,-0.1 V 392 c -1,-0.3 -1.7,-1.2 -1.7,-2.1 0,-0.1 0,-0.3 0,-0.4 H 58 c 0,0.1 0,0.3 0,0.4 0,1 0.8,1.7 1.9,1.9 0.2,0 0.5,0.1 0.7,0.1 H 65 v 1.4 h -5.8 z"
   class="st9" />
			<path
   style="fill:#231f20"
   inkscape:connector-curvature="0"
   id="path1562"
   d="m 54.5,386.7 c 0.5,0 0.9,0.3 0.9,0.9 0,0.5 -0.4,0.9 -0.9,0.9 -0.5,0 -0.9,-0.4 -0.9,-0.9 0,-0.6 0.4,-0.9 0.9,-0.9 z m 10.5,1.6 h -8.2 v -1.4 H 65 Z"
   class="st9" />
			<path
   style="fill:#231f20"
   inkscape:connector-curvature="0"
   id="path1564"
   d="m 54.4,382.8 h 2.3 v -2 h 1.1 v 2 h 4.6 c 1,0 1.5,-0.3 1.5,-1 0,-0.3 0,-0.6 -0.1,-0.8 l 1.1,-0.1 c 0.1,0.3 0.2,0.7 0.2,1.2 0,0.6 -0.2,1.2 -0.6,1.5 -0.4,0.4 -1.1,0.6 -2.1,0.6 h -4.6 v 1.2 h -1.1 v -1.2 h -1.9 z"
   class="st9" />
			<path
   style="fill:#231f20"
   inkscape:connector-curvature="0"
   id="path1566"
   d="m 53.2,374.1 2.4,2 v 1 l -2.4,-1.4 z m 7.9,4.4 c 2.2,0 2.9,-1.2 2.9,-2.6 0,-0.9 -0.2,-1.5 -0.4,-2 l 1,-0.2 c 0.2,0.5 0.5,1.4 0.5,2.5 0,2.4 -1.7,3.7 -4.1,3.7 -2.5,0 -4.4,-1.4 -4.4,-3.5 0,-2.4 2.2,-3.1 3.8,-3.1 0.3,0 0.5,0 0.7,0 z M 60,374.6 c -1.2,0 -2.4,0.4 -2.4,1.8 0,1.3 1.3,1.9 2.4,2 z"
   class="st9" />
			<path
   style="fill:#231f20"
   inkscape:connector-curvature="0"
   id="path1568"
   d="m 65,364 -1,0.1 v 0 c 0.6,0.4 1.2,1.2 1.2,2.3 0,1.5 -1.1,2.3 -2.4,2.3 -2,0 -3,-1.7 -3,-4.5 h -0.2 c -0.8,0 -1.9,0.2 -1.9,1.7 0,0.7 0.2,1.4 0.6,1.9 l -1,0.3 c -0.4,-0.6 -0.7,-1.5 -0.7,-2.5 0,-2.3 1.5,-2.9 3.2,-2.9 H 63 c 0.7,0 1.4,0 1.9,-0.1 v 1.4 z m -4.2,0.2 c 0,1.3 0.2,3.1 1.9,3.1 1,0 1.4,-0.6 1.4,-1.3 0,-0.9 -0.6,-1.6 -1.3,-1.8 -0.2,0 -0.3,-0.1 -0.5,-0.1 h -1.5 z"
   class="st9" />
			<path
   style="fill:#231f20"
   inkscape:connector-curvature="0"
   id="path1570"
   d="m 53,360.6 v -1.4 h 12 v 1.4 z"
   class="st9" />
			<path
   style="fill:#231f20"
   inkscape:connector-curvature="0"
   id="path1572"
   d="m 54.5,355.2 c 0.5,0 0.9,0.3 0.9,0.9 0,0.5 -0.4,0.9 -0.9,0.9 -0.5,0 -0.9,-0.4 -0.9,-0.9 0,-0.5 0.4,-0.9 0.9,-0.9 z m 10.5,1.6 h -8.2 v -1.4 H 65 Z"
   class="st9" />
			<path
   style="fill:#231f20"
   inkscape:connector-curvature="0"
   id="path1574"
   d="m 58.9,353.1 c -0.9,0 -1.5,0 -2.2,0.1 v -1.3 l 1.2,-0.1 v 0 c -0.7,-0.4 -1.4,-1.1 -1.4,-2.4 0,-1 0.6,-1.8 1.5,-2.1 v 0 c -0.5,-0.2 -0.8,-0.6 -1,-0.9 -0.3,-0.4 -0.5,-0.9 -0.5,-1.6 0,-1.1 0.7,-2.5 3.4,-2.5 h 5 v 1.4 h -4.8 c -1.4,0 -2.4,0.5 -2.4,1.6 0,0.8 0.6,1.4 1.3,1.6 0.2,0.1 0.5,0.1 0.7,0.1 H 65 v 1.4 h -5.1 c -1.2,0 -2.1,0.5 -2.1,1.5 0,0.8 0.7,1.5 1.4,1.7 0.2,0.1 0.5,0.1 0.7,0.1 h 5 v 1.4 z"
   class="st9" />
			<path
   style="fill:#231f20"
   inkscape:connector-curvature="0"
   id="path1576"
   d="m 61.1,339.1 c 2.2,0 2.9,-1.2 2.9,-2.6 0,-0.9 -0.2,-1.5 -0.4,-2 l 1,-0.2 c 0.2,0.5 0.5,1.4 0.5,2.5 0,2.4 -1.7,3.7 -4.1,3.7 -2.5,0 -4.4,-1.4 -4.4,-3.5 0,-2.4 2.2,-3.1 3.8,-3.1 0.3,0 0.5,0 0.7,0 z M 60,335.3 c -1.2,0 -2.4,0.4 -2.4,1.8 0,1.3 1.3,1.9 2.4,2 z"
   class="st9" />
			<path
   style="fill:#231f20"
   inkscape:connector-curvature="0"
   id="path1578"
   d="m 58.9,332.2 c -0.9,0 -1.5,0 -2.2,0.1 V 331 l 1.2,-0.1 v 0 c -0.7,-0.4 -1.4,-1.3 -1.4,-2.5 0,-1.1 0.7,-2.6 3.3,-2.6 H 65 v 1.4 h -4.9 c -1.2,0 -2.3,0.4 -2.3,1.7 0,0.9 0.6,1.5 1.5,1.8 0.2,0.1 0.4,0.1 0.7,0.1 h 5 v 1.4 z"
   class="st9" />
			<path
   style="fill:#231f20"
   inkscape:connector-curvature="0"
   id="path1580"
   d="m 54.4,321.8 h 2.3 v -2 h 1.1 v 2 h 4.6 c 1,0 1.5,-0.3 1.5,-1 0,-0.3 0,-0.6 -0.1,-0.8 l 1.1,-0.1 c 0.1,0.3 0.2,0.7 0.2,1.2 0,0.6 -0.2,1.2 -0.6,1.5 -0.4,0.4 -1.1,0.6 -2.1,0.6 h -4.6 v 1.2 h -1.1 v -1.2 h -1.9 z"
   class="st9" />
			<path
   style="fill:#231f20"
   inkscape:connector-curvature="0"
   id="path1582"
   d="m 65,314.1 -1,0.1 v 0 c 0.6,0.4 1.2,1.2 1.2,2.3 0,1.5 -1.1,2.3 -2.4,2.3 -2,0 -3,-1.7 -3,-4.5 h -0.2 c -0.8,0 -1.9,0.2 -1.9,1.7 0,0.7 0.2,1.4 0.6,1.9 l -1,0.3 c -0.4,-0.6 -0.7,-1.5 -0.7,-2.5 0,-2.3 1.5,-2.9 3.2,-2.9 H 63 c 0.7,0 1.4,0 1.9,-0.1 v 1.4 z m -4.2,0.2 c 0,1.3 0.2,3.1 1.9,3.1 1,0 1.4,-0.6 1.4,-1.3 0,-0.9 -0.6,-1.6 -1.3,-1.8 -0.2,0 -0.3,-0.1 -0.5,-0.1 h -1.5 z"
   class="st9" />
			<path
   style="fill:#231f20"
   inkscape:connector-curvature="0"
   id="path1584"
   d="m 54.5,309.1 c 0.5,0 0.9,0.3 0.9,0.9 0,0.5 -0.4,0.9 -0.9,0.9 -0.5,0 -0.9,-0.4 -0.9,-0.9 0,-0.6 0.4,-0.9 0.9,-0.9 z m 10.5,1.6 h -8.2 v -1.4 H 65 Z"
   class="st9" />
			<path
   style="fill:#231f20"
   inkscape:connector-curvature="0"
   id="path1586"
   d="m 59.2,307 c -0.9,0 -1.7,0 -2.4,0.1 v -1.3 l 1.5,-0.1 v -0.1 c -1,-0.3 -1.7,-1.2 -1.7,-2.1 0,-0.1 0,-0.3 0,-0.4 H 58 c 0,0.1 0,0.3 0,0.4 0,1 0.8,1.7 1.9,1.9 0.2,0 0.5,0.1 0.7,0.1 H 65 v 1.4 h -5.8 z"
   class="st9" />
			<path
   style="fill:#231f20"
   inkscape:connector-curvature="0"
   id="path1588"
   d="m 61.1,300.9 c 2.2,0 2.9,-1.2 2.9,-2.6 0,-0.9 -0.2,-1.5 -0.4,-2 l 1,-0.2 c 0.2,0.5 0.5,1.4 0.5,2.5 0,2.4 -1.7,3.7 -4.1,3.7 -2.5,0 -4.4,-1.4 -4.4,-3.5 0,-2.4 2.2,-3.1 3.8,-3.1 0.3,0 0.5,0 0.7,0 z M 60,297.1 c -1.2,0 -2.4,0.4 -2.4,1.8 0,1.3 1.3,1.9 2.4,2 z"
   class="st9" />
			<path
   style="fill:#231f20"
   inkscape:connector-curvature="0"
   id="path1590"
   d="m 67.1,294.8 c -1,-0.4 -2.8,-0.8 -4,-1 l -0.2,-1.6 c 1.4,0.4 3.3,1.1 4.1,1.6 z"
   class="st9" />
			<path
   style="fill:#231f20"
   inkscape:connector-curvature="0"
   id="path1592"
   d="m 59.4,287.2 c -1.1,0 -1.9,0 -2.6,0.1 V 286 l 1.3,-0.1 v 0 c -1,-0.6 -1.5,-1.4 -1.5,-2.6 0,-1.8 1.6,-3.2 4.2,-3.2 3,0 4.4,1.6 4.4,3.4 0,1 -0.5,1.8 -1.2,2.2 v 0 h 4.4 v 1.4 h -9 z m 2.3,-1.4 c 0.2,0 0.4,0 0.6,-0.1 1.1,-0.3 1.6,-1.1 1.6,-1.9 0,-1.4 -1.4,-2.2 -3.2,-2.2 -1.7,0 -3.1,0.7 -3.1,2.1 0,0.9 0.7,1.7 1.7,1.9 0.2,0 0.4,0.1 0.6,0.1 h 1.8 z"
   class="st9" />
			<path
   style="fill:#231f20"
   inkscape:connector-curvature="0"
   id="path1594"
   d="m 65,274.2 -1,0.1 v 0 c 0.6,0.4 1.2,1.2 1.2,2.3 0,1.5 -1.1,2.3 -2.4,2.3 -2,0 -3,-1.7 -3,-4.5 h -0.2 c -0.8,0 -1.9,0.2 -1.9,1.7 0,0.7 0.2,1.4 0.6,1.9 l -1,0.3 c -0.4,-0.6 -0.7,-1.5 -0.7,-2.5 0,-2.3 1.5,-2.9 3.2,-2.9 H 63 c 0.7,0 1.4,0 1.9,-0.1 v 1.4 z m -4.2,0.2 c 0,1.3 0.2,3.1 1.9,3.1 1,0 1.4,-0.6 1.4,-1.3 0,-0.9 -0.6,-1.6 -1.3,-1.8 -0.2,0 -0.3,-0.1 -0.5,-0.1 h -1.5 z"
   class="st9" />
			<path
   style="fill:#231f20"
   inkscape:connector-curvature="0"
   id="path1596"
   d="m 59.2,270.8 c -0.9,0 -1.7,0 -2.4,0.1 v -1.3 l 1.5,-0.1 v -0.1 c -1,-0.3 -1.7,-1.2 -1.7,-2.1 0,-0.1 0,-0.3 0,-0.4 H 58 c 0,0.1 0,0.3 0,0.4 0,1 0.8,1.7 1.9,1.9 0.2,0 0.5,0.1 0.7,0.1 H 65 v 1.4 h -5.8 z"
   class="st9" />
			<path
   style="fill:#231f20"
   inkscape:connector-curvature="0"
   id="path1598"
   d="m 61.1,261.4 c 2.2,0 2.9,-1.2 2.9,-2.6 0,-0.9 -0.2,-1.5 -0.4,-2 l 1,-0.2 c 0.2,0.5 0.5,1.4 0.5,2.5 0,2.4 -1.7,3.7 -4.1,3.7 -2.5,0 -4.4,-1.4 -4.4,-3.5 0,-2.4 2.2,-3.1 3.8,-3.1 0.3,0 0.5,0 0.7,0 z M 60,257.6 c -1.2,0 -2.4,0.4 -2.4,1.8 0,1.3 1.3,1.9 2.4,2 z"
   class="st9" />
			<path
   style="fill:#231f20"
   inkscape:connector-curvature="0"
   id="path1600"
   d="m 56.7,253.8 1.8,-1.1 c 0.5,-0.3 0.9,-0.5 1.4,-0.8 v 0 c -0.5,-0.2 -0.9,-0.5 -1.4,-0.7 l -1.8,-1 v -1.5 l 4,2.6 4.2,-2.6 v 1.6 l -1.9,1.1 c -0.5,0.3 -0.9,0.5 -1.4,0.8 v 0 c 0.5,0.2 0.9,0.5 1.4,0.8 l 1.8,1.1 v 1.6 l -4.2,-2.6 -4,2.5 v -1.8 z"
   class="st9" />
			<path
   style="fill:#231f20"
   inkscape:connector-curvature="0"
   id="path1602"
   d="m 61.1,246.4 c 2.2,0 2.9,-1.2 2.9,-2.6 0,-0.9 -0.2,-1.5 -0.4,-2 l 1,-0.2 c 0.2,0.5 0.5,1.4 0.5,2.5 0,2.4 -1.7,3.7 -4.1,3.7 -2.5,0 -4.4,-1.4 -4.4,-3.5 0,-2.4 2.2,-3.1 3.8,-3.1 0.3,0 0.5,0 0.7,0 z M 60,242.5 c -1.2,0 -2.4,0.4 -2.4,1.8 0,1.3 1.3,1.9 2.4,2 z"
   class="st9" />
			<path
   style="fill:#231f20"
   inkscape:connector-curvature="0"
   id="path1604"
   d="m 58.9,239.4 c -0.9,0 -1.5,0 -2.2,0.1 v -1.3 l 1.2,-0.1 v 0 c -0.7,-0.4 -1.4,-1.1 -1.4,-2.4 0,-1 0.6,-1.8 1.5,-2.1 v 0 c -0.5,-0.2 -0.8,-0.6 -1,-0.9 -0.3,-0.4 -0.5,-0.9 -0.5,-1.6 0,-1.1 0.7,-2.5 3.4,-2.5 h 5 v 1.4 h -4.8 c -1.4,0 -2.4,0.5 -2.4,1.6 0,0.8 0.6,1.4 1.3,1.6 0.2,0.1 0.5,0.1 0.7,0.1 H 65 v 1.4 h -5.1 c -1.2,0 -2.1,0.5 -2.1,1.5 0,0.8 0.7,1.5 1.4,1.7 0.2,0.1 0.5,0.1 0.7,0.1 h 5 v 1.4 z"
   class="st9" />
			<path
   style="fill:#231f20"
   inkscape:connector-curvature="0"
   id="path1606"
   d="m 59.4,226.3 c -1.1,0 -1.9,0 -2.6,0.1 v -1.3 L 58,225 v 0 c -1,-0.6 -1.5,-1.4 -1.5,-2.6 0,-1.8 1.6,-3.2 4.2,-3.2 3,0 4.4,1.6 4.4,3.4 0,1 -0.5,1.8 -1.2,2.2 v 0 h 4.4 v 1.4 h -8.9 z m 2.3,-1.4 c 0.2,0 0.4,0 0.6,-0.1 1.1,-0.3 1.6,-1.1 1.6,-1.9 0,-1.4 -1.4,-2.2 -3.2,-2.2 -1.7,0 -3.1,0.7 -3.1,2.1 0,0.9 0.7,1.7 1.7,1.9 0.2,0 0.4,0.1 0.6,0.1 h 1.8 z"
   class="st9" />
			<path
   style="fill:#231f20"
   inkscape:connector-curvature="0"
   id="path1608"
   d="m 53,217.5 v -1.4 h 12 v 1.4 z"
   class="st9" />
			<path
   style="fill:#231f20"
   inkscape:connector-curvature="0"
   id="path1610"
   d="m 61.1,212.9 c 2.2,0 2.9,-1.2 2.9,-2.6 0,-0.9 -0.2,-1.5 -0.4,-2 l 1,-0.2 c 0.2,0.5 0.5,1.4 0.5,2.5 0,2.4 -1.7,3.7 -4.1,3.7 -2.5,0 -4.4,-1.4 -4.4,-3.5 0,-2.4 2.2,-3.1 3.8,-3.1 0.3,0 0.5,0 0.7,0 z M 60,209.1 c -1.2,0 -2.4,0.4 -2.4,1.8 0,1.3 1.3,1.9 2.4,2 z"
   class="st9" />
		</g>
	</g><g
   id="g1624"
   transform="translate(-13,-66.4)">
		<g
   id="g1622">
			<line
   style="fill:none;stroke:#403f5a;stroke-width:3.42499995;stroke-linecap:round;stroke-miterlimit:10"
   id="line1616"
   y2="253.7"
   x2="84.900002"
   y1="253.7"
   x1="84.900002"
   class="st13" />
			<path
   style="fill:none;stroke:#403f5a;stroke-width:3.42499995;stroke-linecap:round;stroke-miterlimit:10;stroke-dasharray:0, 6.8504"
   inkscape:connector-curvature="0"
   id="path1618"
   d="m 91.8,253.6 c 61.2,-0.8 82.3,-0.3 127.1,-0.3 32.4,0 40.5,50.8 87.2,50.8 86.3,0 -3,-113.4 373.4,-113.4 h 105.9"
   class="st14" />
			<line
   style="fill:none;stroke:#403f5a;stroke-width:3.42499995;stroke-linecap:round;stroke-miterlimit:10"
   id="line1620"
   y2="190.7"
   x2="788.90002"
   y1="190.7"
   x1="788.90002"
   class="st13" />
		</g>
	</g><g
   id="g1630"
   transform="translate(-13,-66.4)">
		<g
   id="g1628">
			<path
   style="fill:#403f5a"
   inkscape:connector-curvature="0"
   id="path1626"
   d="m 789.2,315.8 c -69.5,10.4 -129.9,47.9 -189.3,83 -32.7,19.2 -65.7,38.1 -100.4,53.3 -38.3,16.8 -78.5,28.9 -120,34.5 -21.8,2.9 -44.7,5.2 -66.6,3.4 -12.9,-1 -25.7,-4.4 -36.9,-11 -20.3,-11.9 -32.5,-32.8 -40,-54.5 -8.4,-24.1 -12.1,-49.6 -16,-74.7 -3.4,-22.2 -6.3,-45.3 -14.9,-66.2 -6.5,-15.7 -17.7,-29.2 -35.4,-31.5 -10.6,-1.4 -21.9,-0.5 -32.6,-0.3 -6.8,0.1 -13.5,0.4 -20.3,0.6 -10.3,0.2 -20.7,0.4 -31,0.5 -1.1,0 -3.6,1.7 -1.3,1.7 21.9,-0.3 43.8,-1.1 65.7,-1.2 10.8,0 21.5,-0.7 31.2,4.8 7.6,4.3 13.1,11.4 17.2,18.9 10.2,19.2 13.4,42 16.7,63.2 4,25.1 7.2,50.4 14.4,74.9 6.3,21.8 16.2,43.8 34.1,58.5 23.6,19.4 54.1,19.2 83.1,17.6 41.7,-2.4 82.7,-11.1 122,-25.2 35.9,-12.9 70,-30.2 103.2,-49 61.6,-34.9 121.6,-77.2 191.1,-94.5 8.5,-2.1 17.1,-3.8 25.7,-5.1 1.2,-0.3 2.6,-2 0.3,-1.7 z"
   class="st0" />
		</g>
	</g><polygon
   style="fill:#d5b12a"
   id="polygon1632"
   points="458.9,417.3 332,420.3 338.6,337.2 456.9,338.3 "
   class="st1"
   transform="translate(-13,-66.4)" /><g
   id="g1670"
   transform="translate(-13,-66.4)">
		<g
   id="g1668">
			<path
   style="fill:#ffffff"
   inkscape:connector-curvature="0"
   id="path1634"
   d="m 365.4,367.5 c -0.6,0.3 -1.7,0.5 -3,0.5 -4.6,0 -7.2,-3.8 -7.2,-10 0,-7.8 4.1,-10.6 7.7,-10.6 1.3,0 2.2,0.3 2.6,0.5 l -0.6,2.7 c -0.5,-0.2 -1,-0.4 -1.9,-0.4 -2.2,0 -4.5,2 -4.5,7.5 0,5.4 2,7.4 4.5,7.4 0.8,0 1.5,-0.2 2,-0.4 z"
   class="st2" />
			<path
   style="fill:#ffffff"
   inkscape:connector-curvature="0"
   id="path1636"
   d="m 369.1,364.1 -0.8,3.7 h -2.2 l 3.1,-14.2 h 2.6 l 2.9,14.2 h -2.2 l -0.8,-3.7 z m 2.6,-1.8 -0.6,-3.2 c -0.2,-0.9 -0.4,-2.2 -0.5,-3.2 h -0.1 c -0.2,1 -0.4,2.3 -0.5,3.2 l -0.6,3.2 z"
   class="st2" />
			<path
   style="fill:#ffffff"
   inkscape:connector-curvature="0"
   id="path1638"
   d="m 376.6,353.9 c 0.7,-0.2 1.6,-0.3 2.6,-0.3 1.5,0 2.7,0.3 3.5,1.1 0.8,0.7 1.1,1.8 1.1,3 0,1.4 -0.4,2.4 -1,3.2 -0.8,1 -2.2,1.5 -3.4,1.5 -0.2,0 -0.4,0 -0.6,0 v 5.5 h -2.2 z m 2.2,6.5 c 0.2,0 0.3,0 0.5,0 1.5,0 2.3,-1 2.3,-2.6 0,-1.3 -0.5,-2.5 -2.1,-2.5 -0.3,0 -0.6,0 -0.8,0.1 v 5 z"
   class="st2" />
			<path
   style="fill:#ffffff"
   inkscape:connector-curvature="0"
   id="path1640"
   d="m 387.6,364.1 -0.8,3.7 h -2.2 l 3.1,-14.2 h 2.6 l 2.9,14.2 H 391 l -0.8,-3.7 z m 2.6,-1.8 -0.6,-3.2 c -0.2,-0.9 -0.4,-2.2 -0.5,-3.2 H 389 c -0.2,1 -0.4,2.3 -0.5,3.2 l -0.6,3.2 z"
   class="st2" />
			<path
   style="fill:#ffffff"
   inkscape:connector-curvature="0"
   id="path1642"
   d="m 401.5,367.6 c -0.4,0.2 -1.2,0.4 -2.1,0.4 -3.2,0 -5.1,-2.6 -5.1,-7 0,-5.4 2.9,-7.4 5.4,-7.4 0.9,0 1.6,0.2 1.8,0.4 l -0.4,1.9 c -0.3,-0.2 -0.7,-0.3 -1.3,-0.3 -1.5,0 -3.1,1.4 -3.1,5.3 0,3.8 1.4,5.2 3.1,5.2 0.5,0 1.1,-0.1 1.4,-0.2 z"
   class="st2" />
			<path
   style="fill:#ffffff"
   inkscape:connector-curvature="0"
   id="path1644"
   d="m 405.3,353.6 v 14.2 h -2.2 v -14.2 z"
   class="st2" />
			<path
   style="fill:#ffffff"
   inkscape:connector-curvature="0"
   id="path1646"
   d="m 409.4,355.7 h -2.5 v -2.1 h 7.3 v 2.1 h -2.5 v 12.1 h -2.2 v -12.1 z"
   class="st2" />
			<path
   style="fill:#ffffff"
   inkscape:connector-curvature="0"
   id="path1648"
   d="M 421.3,361.3 H 418 v 4.5 h 3.8 v 1.9 h -6.1 v -14.2 h 5.8 v 1.9 H 418 v 3.9 h 3.4 v 2 z m 0.6,-10.7 -2.6,2.3 h -1.6 l 1.8,-2.3 z"
   class="st2" />
			<path
   style="fill:#ffffff"
   inkscape:connector-curvature="0"
   id="path1650"
   d="m 430.4,364.1 -0.8,3.7 h -2.2 l 3.1,-14.2 h 2.6 l 2.9,14.2 h -2.2 l -0.8,-3.7 z m 0.9,-13.5 1.8,2.3 h -1.6 l -2.6,-2.3 z m 1.6,11.7 -0.6,-3.2 c -0.2,-0.9 -0.4,-2.2 -0.5,-3.2 h -0.1 c -0.2,1 -0.4,2.3 -0.5,3.2 l -0.6,3.2 z"
   class="st2" />
			<path
   style="fill:#ffffff"
   inkscape:connector-curvature="0"
   id="path1652"
   d="m 362.3,400.1 -0.8,3.7 h -2.2 l 3.1,-14.2 h 2.6 l 2.9,14.2 h -2.2 l -0.8,-3.7 z m 2.6,-1.8 -0.6,-3.2 c -0.2,-0.9 -0.4,-2.2 -0.5,-3.2 h -0.1 c -0.2,1 -0.4,2.3 -0.5,3.2 l -0.6,3.2 z"
   class="st2" />
			<path
   style="fill:#ffffff"
   inkscape:connector-curvature="0"
   id="path1654"
   d="m 369.8,389.9 c 0.8,-0.2 1.7,-0.3 2.8,-0.3 1.3,0 2.5,0.2 3.4,1 0.7,0.6 1,1.5 1,2.5 0,1.3 -0.7,2.5 -2.1,3.1 v 0.1 c 1.6,0.5 2.6,1.8 2.6,3.5 0,1.2 -0.4,2.1 -1,2.8 -0.8,0.9 -2.2,1.4 -4.2,1.4 -1,0 -1.8,-0.1 -2.4,-0.1 v -14 z m 2.2,5.6 h 0.7 c 1.1,0 2.1,-0.9 2.1,-2.2 0,-1.2 -0.5,-2.1 -1.9,-2.1 -0.3,0 -0.6,0 -0.8,0.1 v 4.2 z m 0,6.6 c 0.2,0 0.4,0.1 0.7,0.1 1.4,0 2.4,-0.8 2.4,-2.4 0,-1.7 -1.1,-2.5 -2.4,-2.5 H 372 Z"
   class="st2" />
			<path
   style="fill:#ffffff"
   inkscape:connector-curvature="0"
   id="path1656"
   d="m 379,401.4 c 0.5,0.3 1.4,0.6 2.2,0.6 1.4,0 2.1,-0.8 2.1,-2 0,-1.1 -0.7,-1.8 -1.9,-2.6 -1.6,-1 -2.7,-2.4 -2.7,-3.9 0,-2.2 1.5,-4 4.1,-4 0.9,0 1.7,0.3 2.1,0.5 l -0.4,1.9 c -0.4,-0.3 -1,-0.5 -1.7,-0.5 -1.3,0 -1.9,0.9 -1.9,1.7 0,1.1 0.6,1.6 2,2.5 1.8,1.2 2.5,2.5 2.5,4.1 0,2.5 -1.8,4.1 -4.4,4.1 -1.1,0 -2.1,-0.3 -2.6,-0.6 z"
   class="st2" />
			<path
   style="fill:#ffffff"
   inkscape:connector-curvature="0"
   id="path1658"
   d="m 395.2,396.5 c 0,5.3 -1.9,7.4 -4.4,7.4 -2.8,0 -4.2,-3 -4.2,-7.3 0,-4.2 1.6,-7.2 4.4,-7.2 3,0.1 4.2,3.3 4.2,7.1 z m -6.3,0.2 c 0,3.1 0.6,5.3 2,5.3 1.5,0 1.9,-2.5 1.9,-5.4 0,-2.6 -0.4,-5.2 -1.9,-5.2 -1.4,0 -2,2.4 -2,5.3 z"
   class="st2" />
			<path
   style="fill:#ffffff"
   inkscape:connector-curvature="0"
   id="path1660"
   d="m 397,389.9 c 0.8,-0.2 1.8,-0.3 2.7,-0.3 1.5,0 2.7,0.3 3.5,1 0.8,0.7 1.1,1.7 1.1,2.9 0,1.6 -0.8,2.9 -2.2,3.6 v 0 c 1,0.4 1.5,1.3 1.8,3 0.3,1.7 0.6,3.2 0.9,3.7 h -2.3 c -0.2,-0.4 -0.5,-1.8 -0.7,-3.4 -0.3,-1.8 -0.8,-2.4 -1.9,-2.4 h -0.5 v 5.9 H 397 Z m 2.2,6.3 h 0.6 c 1.3,0 2.2,-1 2.2,-2.5 0,-1.4 -0.6,-2.3 -2,-2.4 -0.3,0 -0.6,0 -0.8,0.1 z"
   class="st2" />
			<path
   style="fill:#ffffff"
   inkscape:connector-curvature="0"
   id="path1662"
   d="m 406.3,389.9 c 0.8,-0.2 1.7,-0.3 2.8,-0.3 1.3,0 2.5,0.2 3.4,1 0.7,0.6 1,1.5 1,2.5 0,1.3 -0.7,2.5 -2.1,3.1 v 0.1 c 1.6,0.5 2.6,1.8 2.6,3.5 0,1.2 -0.4,2.1 -1,2.8 -0.8,0.9 -2.2,1.4 -4.2,1.4 -1,0 -1.8,-0.1 -2.4,-0.1 v -14 z m 2.2,5.6 h 0.7 c 1.1,0 2.1,-0.9 2.1,-2.2 0,-1.2 -0.5,-2.1 -1.9,-2.1 -0.3,0 -0.6,0 -0.8,0.1 v 4.2 z m 0,6.6 c 0.2,0 0.4,0.1 0.7,0.1 1.4,0 2.4,-0.8 2.4,-2.4 0,-1.7 -1.1,-2.5 -2.4,-2.5 h -0.6 v 4.8 z"
   class="st2" />
			<path
   style="fill:#ffffff"
   inkscape:connector-curvature="0"
   id="path1664"
   d="M 421.4,397.3 H 418 v 4.5 h 3.8 v 1.9 h -6.1 v -14.2 h 5.8 v 1.9 h -3.6 v 3.9 h 3.4 v 2 z"
   class="st2" />
			<path
   style="fill:#ffffff"
   inkscape:connector-curvature="0"
   id="path1666"
   d="m 423.7,389.9 c 0.8,-0.2 1.8,-0.3 2.7,-0.3 1.5,0 2.7,0.3 3.5,1 0.8,0.7 1.1,1.7 1.1,2.9 0,1.6 -0.8,2.9 -2.2,3.6 v 0 c 1,0.4 1.5,1.3 1.8,3 0.3,1.7 0.6,3.2 0.9,3.7 h -2.3 c -0.2,-0.4 -0.5,-1.8 -0.7,-3.4 -0.3,-1.8 -0.8,-2.4 -1.9,-2.4 h -0.5 v 5.9 h -2.2 v -14 z m 2.2,6.3 h 0.6 c 1.3,0 2.2,-1 2.2,-2.5 0,-1.4 -0.6,-2.3 -2,-2.4 -0.3,0 -0.6,0 -0.8,0.1 z"
   class="st2" />
		</g>
	</g><polygon
   style="fill:#996527"
   id="polygon1672"
   points="520.6,176.2 394.8,177.7 401.7,106.4 517.3,108.5 "
   class="st5"
   transform="translate(-13,-66.4)" /><g
   id="g1712"
   transform="translate(-13,-66.4)">
		<g
   id="g1710">
			<path
   style="fill:#ffffff"
   inkscape:connector-curvature="0"
   id="path1674"
   d="m 427.7,133.3 c -0.6,0.3 -1.7,0.5 -3,0.5 -4.6,0 -7.2,-3.8 -7.2,-10 0,-7.8 4.1,-10.6 7.7,-10.6 1.3,0 2.2,0.3 2.6,0.5 l -0.6,2.7 c -0.5,-0.2 -1,-0.4 -1.9,-0.4 -2.2,0 -4.5,2 -4.5,7.5 0,5.4 2,7.4 4.5,7.4 0.8,0 1.5,-0.2 2,-0.4 z"
   class="st2" />
			<path
   style="fill:#ffffff"
   inkscape:connector-curvature="0"
   id="path1676"
   d="m 431.4,129.9 -0.8,3.7 h -2.2 l 3.1,-14.2 h 2.6 l 2.9,14.2 h -2 l -0.8,-3.7 z m 2.6,-1.8 -0.6,-3.2 c -0.2,-0.9 -0.4,-2.2 -0.5,-3.2 h -0.1 c -0.2,1 -0.4,2.3 -0.5,3.2 l -0.6,3.2 z"
   class="st2" />
			<path
   style="fill:#ffffff"
   inkscape:connector-curvature="0"
   id="path1678"
   d="m 438.8,119.6 c 0.7,-0.2 1.6,-0.3 2.6,-0.3 1.5,0 2.7,0.3 3.5,1.1 0.8,0.7 1.1,1.8 1.1,3 0,1.4 -0.4,2.4 -1,3.2 -0.8,1 -2.2,1.5 -3.4,1.5 -0.2,0 -0.4,0 -0.6,0 v 5.5 h -2.2 z m 2.3,6.6 c 0.2,0 0.3,0 0.5,0 1.5,0 2.3,-1 2.3,-2.6 0,-1.3 -0.5,-2.5 -2.1,-2.5 -0.3,0 -0.6,0 -0.8,0.1 v 5 z"
   class="st2" />
			<path
   style="fill:#ffffff"
   inkscape:connector-curvature="0"
   id="path1680"
   d="m 449.9,129.9 -0.8,3.7 h -2.2 l 3.1,-14.2 h 2.6 l 2.9,14.2 h -2.2 l -0.8,-3.7 z m 2.5,-1.8 -0.6,-3.2 c -0.2,-0.9 -0.4,-2.2 -0.5,-3.2 h -0.1 c -0.2,1 -0.4,2.3 -0.5,3.2 l -0.6,3.2 z"
   class="st2" />
			<path
   style="fill:#ffffff"
   inkscape:connector-curvature="0"
   id="path1682"
   d="m 463.8,133.4 c -0.4,0.2 -1.2,0.4 -2.1,0.4 -3.2,0 -5.1,-2.6 -5.1,-7 0,-5.4 2.9,-7.4 5.4,-7.4 0.9,0 1.6,0.2 1.8,0.4 l -0.4,1.9 c -0.3,-0.2 -0.7,-0.3 -1.3,-0.3 -1.5,0 -3.1,1.4 -3.1,5.3 0,3.8 1.4,5.2 3.1,5.2 0.5,0 1.1,-0.1 1.4,-0.2 z"
   class="st2" />
			<path
   style="fill:#ffffff"
   inkscape:connector-curvature="0"
   id="path1684"
   d="m 467.6,119.4 v 14.2 h -2.2 v -14.2 z"
   class="st2" />
			<path
   style="fill:#ffffff"
   inkscape:connector-curvature="0"
   id="path1686"
   d="m 471.7,121.5 h -2.5 v -2.1 h 7.3 v 2.1 H 474 v 12.1 h -2.2 v -12.1 z"
   class="st2" />
			<path
   style="fill:#ffffff"
   inkscape:connector-curvature="0"
   id="path1688"
   d="m 483.6,127.1 h -3.4 v 4.5 h 3.8 v 1.9 h -6 v -14.2 h 5.8 v 1.9 h -3.6 v 3.9 h 3.4 z m 0.5,-10.8 -2.6,2.3 h -1.6 l 1.8,-2.3 z"
   class="st2" />
			<path
   style="fill:#ffffff"
   inkscape:connector-curvature="0"
   id="path1690"
   d="m 492.6,129.9 -0.8,3.7 h -2.2 l 3.1,-14.2 h 2.6 l 2.9,14.2 H 496 l -0.8,-3.7 z m 1,-13.6 1.8,2.3 h -1.6 l -2.6,-2.3 z m 1.6,11.8 -0.6,-3.2 c -0.2,-0.9 -0.4,-2.2 -0.5,-3.2 H 494 c -0.2,1 -0.4,2.3 -0.5,3.2 l -0.6,3.2 z"
   class="st2" />
			<path
   style="fill:#ffffff"
   inkscape:connector-curvature="0"
   id="path1692"
   d="m 418.5,155.6 c 0.8,-0.2 1.8,-0.3 2.7,-0.3 1.5,0 2.7,0.3 3.5,1 0.8,0.7 1.1,1.7 1.1,2.9 0,1.6 -0.8,2.9 -2.2,3.6 v 0 c 1,0.4 1.5,1.3 1.8,3 0.3,1.7 0.6,3.2 0.9,3.7 H 424 c -0.2,-0.4 -0.5,-1.8 -0.7,-3.4 -0.3,-1.8 -0.8,-2.4 -1.9,-2.4 h -0.5 v 5.9 h -2.2 v -14 z m 2.3,6.4 h 0.6 c 1.3,0 2.2,-1 2.2,-2.5 0,-1.4 -0.6,-2.3 -2,-2.4 -0.3,0 -0.6,0 -0.8,0.1 z"
   class="st2" />
			<path
   style="fill:#ffffff"
   inkscape:connector-curvature="0"
   id="path1694"
   d="m 433.5,163.1 h -3.4 v 4.5 h 3.8 v 1.9 h -6.1 v -14.2 h 5.8 v 1.9 H 430 v 3.9 h 3.4 v 2 z"
   class="st2" />
			<path
   style="fill:#ffffff"
   inkscape:connector-curvature="0"
   id="path1696"
   d="m 442.2,169.4 c -0.4,0.2 -1.2,0.4 -2.1,0.4 -3.2,0 -5.1,-2.6 -5.1,-7 0,-5.4 2.9,-7.4 5.4,-7.4 0.9,0 1.6,0.2 1.8,0.4 l -0.4,1.9 c -0.3,-0.2 -0.7,-0.3 -1.3,-0.3 -1.5,0 -3.1,1.4 -3.1,5.3 0,3.8 1.4,5.2 3.1,5.2 0.5,0 1.1,-0.1 1.4,-0.2 z"
   class="st2" />
			<path
   style="fill:#ffffff"
   inkscape:connector-curvature="0"
   id="path1698"
   d="m 451.8,162.3 c 0,5.3 -1.9,7.4 -4.4,7.4 -2.8,0 -4.2,-3 -4.2,-7.3 0,-4.2 1.6,-7.2 4.4,-7.2 3,0.1 4.2,3.3 4.2,7.1 z m -6.3,0.2 c 0,3.1 0.6,5.3 2,5.3 1.5,0 1.9,-2.5 1.9,-5.4 0,-2.6 -0.4,-5.2 -1.9,-5.2 -1.4,0 -2,2.3 -2,5.3 z"
   class="st2" />
			<path
   style="fill:#ffffff"
   inkscape:connector-curvature="0"
   id="path1700"
   d="m 455.8,155.4 v 9.3 c 0,2.3 0.7,3 1.6,3 1,0 1.6,-0.7 1.6,-3 v -9.3 h 2.2 v 8.9 c 0,3.7 -1.4,5.4 -3.9,5.4 -2.6,0 -3.8,-1.8 -3.8,-5.3 v -9 z"
   class="st2" />
			<path
   style="fill:#ffffff"
   inkscape:connector-curvature="0"
   id="path1702"
   d="m 465.8,169.6 -3.2,-14.2 h 2.5 l 1.2,6.3 c 0.3,1.6 0.6,3.4 0.8,5.1 h 0.1 c 0.2,-1.7 0.5,-3.6 0.8,-5.2 l 1.1,-6.3 h 2.4 l -3.3,14.2 h -2.4 z"
   class="st2" />
			<path
   style="fill:#ffffff"
   inkscape:connector-curvature="0"
   id="path1704"
   d="m 472.9,155.6 c 0.8,-0.2 1.8,-0.3 2.7,-0.3 1.5,0 2.7,0.3 3.5,1 0.8,0.7 1.1,1.7 1.1,2.9 0,1.6 -0.8,2.9 -2.2,3.6 v 0 c 1,0.4 1.5,1.3 1.8,3 0.3,1.7 0.6,3.2 0.9,3.7 h -2.3 c -0.2,-0.4 -0.5,-1.8 -0.7,-3.4 -0.3,-1.8 -0.8,-2.4 -1.9,-2.4 h -0.5 v 5.9 h -2.2 v -14 z m 2.2,6.4 h 0.6 c 1.3,0 2.2,-1 2.2,-2.5 0,-1.4 -0.6,-2.3 -2,-2.4 -0.3,0 -0.6,0 -0.8,0.1 z"
   class="st2" />
			<path
   style="fill:#ffffff"
   inkscape:connector-curvature="0"
   id="path1706"
   d="m 487.8,163.1 h -3.4 v 4.5 h 3.8 v 1.9 h -6.1 v -14.2 h 5.8 v 1.9 h -3.6 v 3.9 h 3.4 v 2 z"
   class="st2" />
			<path
   style="fill:#ffffff"
   inkscape:connector-curvature="0"
   id="path1708"
   d="m 490.1,155.6 c 0.8,-0.2 1.8,-0.3 2.7,-0.3 1.5,0 2.7,0.3 3.5,1 0.8,0.7 1.1,1.7 1.1,2.9 0,1.6 -0.8,2.9 -2.2,3.6 v 0 c 1,0.4 1.5,1.3 1.8,3 0.3,1.7 0.6,3.2 0.9,3.7 h -2.3 c -0.2,-0.4 -0.5,-1.8 -0.7,-3.4 -0.3,-1.8 -0.8,-2.4 -1.9,-2.4 h -0.5 v 5.9 h -2.2 v -14 z m 2.2,6.4 h 0.6 c 1.3,0 2.2,-1 2.2,-2.5 0,-1.4 -0.6,-2.3 -2,-2.4 -0.3,0 -0.6,0 -0.8,0.1 z"
   class="st2" />
		</g>
	</g><polygon
   style="fill:#173f6e"
   id="polygon1714"
   points="285.5,207.3 170.3,203.8 173.1,135.1 283.3,140.2 "
   class="st6"
   transform="translate(-13,-66.4)" /><g
   id="g1752"
   transform="translate(-13,-66.4)">
		<g
   id="g1750">
			<path
   style="fill:#ffffff"
   inkscape:connector-curvature="0"
   id="path1716"
   d="m 198,163 c -0.6,0.3 -1.7,0.5 -3,0.5 -4.6,0 -7.2,-3.8 -7.2,-10 0,-7.8 4.1,-10.6 7.7,-10.6 1.3,0 2.2,0.3 2.6,0.5 l -0.6,2.7 c -0.5,-0.2 -1,-0.4 -1.9,-0.4 -2.2,0 -4.5,2 -4.5,7.5 0,5.4 2,7.4 4.5,7.4 0.8,0 1.5,-0.2 2,-0.4 z"
   class="st2" />
			<path
   style="fill:#ffffff"
   inkscape:connector-curvature="0"
   id="path1718"
   d="m 201.7,159.7 -0.8,3.7 h -2.2 l 3.1,-14.2 h 2.6 l 2.9,14.2 h -2.2 l -0.8,-3.7 z m 2.6,-1.8 -0.6,-3.2 c -0.2,-0.9 -0.4,-2.2 -0.5,-3.2 h -0.1 c -0.2,1 -0.4,2.3 -0.5,3.2 l -0.6,3.2 z"
   class="st2" />
			<path
   style="fill:#ffffff"
   inkscape:connector-curvature="0"
   id="path1720"
   d="m 209.2,149.4 c 0.7,-0.2 1.6,-0.3 2.6,-0.3 1.5,0 2.7,0.3 3.5,1.1 0.8,0.7 1.1,1.8 1.1,3 0,1.4 -0.4,2.4 -1,3.2 -0.8,1 -2.2,1.5 -3.4,1.5 -0.2,0 -0.4,0 -0.6,0 v 5.5 h -2.2 z m 2.2,6.6 c 0.2,0 0.3,0 0.5,0 1.5,0 2.3,-1 2.3,-2.6 0,-1.3 -0.5,-2.5 -2.1,-2.5 -0.3,0 -0.6,0 -0.8,0.1 v 5 z"
   class="st2" />
			<path
   style="fill:#ffffff"
   inkscape:connector-curvature="0"
   id="path1722"
   d="m 220.2,159.7 -0.8,3.7 h -2.2 l 3.1,-14.2 h 2.6 l 2.9,14.2 h -2.2 l -0.8,-3.7 z m 2.6,-1.8 -0.6,-3.2 c -0.2,-0.9 -0.4,-2.2 -0.5,-3.2 h -0.1 c -0.2,1 -0.4,2.3 -0.5,3.2 l -0.6,3.2 z"
   class="st2" />
			<path
   style="fill:#ffffff"
   inkscape:connector-curvature="0"
   id="path1724"
   d="m 234.1,163.1 c -0.4,0.2 -1.2,0.4 -2.1,0.4 -3.2,0 -5.1,-2.6 -5.1,-7 0,-5.4 2.9,-7.4 5.4,-7.4 0.9,0 1.6,0.2 1.8,0.4 l -0.4,1.9 c -0.3,-0.2 -0.7,-0.3 -1.3,-0.3 -1.5,0 -3.1,1.4 -3.1,5.3 0,3.8 1.4,5.2 3.1,5.2 0.5,0 1.1,-0.1 1.4,-0.2 z"
   class="st2" />
			<path
   style="fill:#ffffff"
   inkscape:connector-curvature="0"
   id="path1726"
   d="m 237.9,149.2 v 14.2 h -2.2 v -14.2 z"
   class="st2" />
			<path
   style="fill:#ffffff"
   inkscape:connector-curvature="0"
   id="path1728"
   d="m 242,151.3 h -2.5 v -2.1 h 7.3 v 2.1 h -2.5 v 12.1 H 242 Z"
   class="st2" />
			<path
   style="fill:#ffffff"
   inkscape:connector-curvature="0"
   id="path1730"
   d="m 254,156.9 h -3.4 v 4.5 h 3.8 v 1.9 h -6.1 v -14.2 h 5.8 v 1.9 h -3.6 v 3.9 h 3.4 v 2 z m 0.5,-10.8 -2.6,2.3 h -1.6 l 1.8,-2.3 z"
   class="st2" />
			<path
   style="fill:#ffffff"
   inkscape:connector-curvature="0"
   id="path1732"
   d="m 263,159.7 -0.8,3.7 H 260 l 3.1,-14.2 h 2.6 l 2.9,14.2 h -2.2 l -0.8,-3.7 z m 0.9,-13.6 1.8,2.3 h -1.6 l -2.6,-2.3 z m 1.6,11.8 -0.6,-3.2 c -0.2,-0.9 -0.4,-2.2 -0.5,-3.2 h -0.1 c -0.2,1 -0.4,2.3 -0.5,3.2 l -0.6,3.2 z"
   class="st2" />
			<path
   style="fill:#ffffff"
   inkscape:connector-curvature="0"
   id="path1734"
   d="m 197.8,185.4 c 0.8,-0.2 1.8,-0.3 2.7,-0.3 1.5,0 2.7,0.3 3.5,1 0.8,0.7 1.1,1.7 1.1,2.9 0,1.6 -0.8,2.9 -2.2,3.6 v 0 c 1,0.4 1.5,1.3 1.8,3 0.3,1.7 0.6,3.2 0.9,3.7 h -2.3 c -0.2,-0.4 -0.5,-1.8 -0.7,-3.4 -0.3,-1.8 -0.8,-2.4 -1.9,-2.4 H 200 v 5.9 h -2.2 z m 2.2,6.3 h 0.6 c 1.3,0 2.2,-1 2.2,-2.5 0,-1.4 -0.6,-2.3 -2,-2.4 -0.3,0 -0.6,0 -0.8,0.1 z"
   class="st2" />
			<path
   style="fill:#ffffff"
   inkscape:connector-curvature="0"
   id="path1736"
   d="m 212.7,192.9 h -3.4 v 4.5 h 3.8 v 1.9 H 207 v -14.2 h 5.8 v 1.9 h -3.6 v 3.9 h 3.4 v 2 z m 0.6,-10.8 -2.6,2.3 H 209 l 1.8,-2.3 z"
   class="st2" />
			<path
   style="fill:#ffffff"
   inkscape:connector-curvature="0"
   id="path1738"
   d="m 214.7,197 c 0.5,0.3 1.4,0.6 2.2,0.6 1.4,0 2.1,-0.8 2.1,-2 0,-1.1 -0.7,-1.8 -1.9,-2.6 -1.6,-1 -2.7,-2.4 -2.7,-3.9 0,-2.2 1.5,-4 4.1,-4 0.9,0 1.7,0.3 2.1,0.5 l -0.4,1.9 c -0.4,-0.3 -1,-0.5 -1.7,-0.5 -1.3,0 -1.9,0.9 -1.9,1.7 0,1.1 0.6,1.6 2,2.5 1.8,1.2 2.5,2.5 2.5,4.1 0,2.5 -1.8,4.1 -4.4,4.1 -1.1,0 -2.1,-0.3 -2.6,-0.6 z"
   class="st2" />
			<path
   style="fill:#ffffff"
   inkscape:connector-curvature="0"
   id="path1740"
   d="m 225.2,185.2 v 14.2 H 223 v -14.2 z"
   class="st2" />
			<path
   style="fill:#ffffff"
   inkscape:connector-curvature="0"
   id="path1742"
   d="m 227.4,197 c 0.5,0.3 1.4,0.6 2.2,0.6 1.4,0 2.1,-0.8 2.1,-2 0,-1.1 -0.7,-1.8 -1.9,-2.6 -1.6,-1 -2.7,-2.4 -2.7,-3.9 0,-2.2 1.5,-4 4.1,-4 0.9,0 1.7,0.3 2.1,0.5 l -0.4,1.9 c -0.4,-0.3 -1,-0.5 -1.7,-0.5 -1.3,0 -1.9,0.9 -1.9,1.7 0,1.1 0.6,1.6 2,2.5 1.8,1.2 2.5,2.5 2.5,4.1 0,2.5 -1.8,4.1 -4.4,4.1 -1.1,0 -2.1,-0.3 -2.6,-0.6 z"
   class="st2" />
			<path
   style="fill:#ffffff"
   inkscape:connector-curvature="0"
   id="path1744"
   d="m 237.3,187.3 h -2.5 v -2.1 h 7.3 v 2.1 h -2.5 v 12.1 h -2.2 v -12.1 z"
   class="st2" />
			<path
   style="fill:#ffffff"
   inkscape:connector-curvature="0"
   id="path1746"
   d="m 249.2,192.9 h -3.4 v 4.5 h 3.8 v 1.9 h -6.1 v -14.2 h 5.8 v 1.9 h -3.6 v 3.9 h 3.4 v 2 z"
   class="st2" />
			<path
   style="fill:#ffffff"
   inkscape:connector-curvature="0"
   id="path1748"
   d="m 251.5,185.4 c 0.8,-0.2 1.8,-0.3 2.7,-0.3 1.5,0 2.7,0.3 3.5,1 0.8,0.7 1.1,1.7 1.1,2.9 0,1.6 -0.8,2.9 -2.2,3.6 v 0 c 1,0.4 1.5,1.3 1.8,3 0.3,1.7 0.6,3.2 0.9,3.7 H 257 c -0.2,-0.4 -0.5,-1.8 -0.7,-3.4 -0.3,-1.8 -0.8,-2.4 -1.9,-2.4 h -0.5 v 5.9 h -2.2 v -14 z m 2.2,6.3 h 0.6 c 1.3,0 2.2,-1 2.2,-2.5 0,-1.4 -0.6,-2.3 -2,-2.4 -0.3,0 -0.6,0 -0.8,0.1 z"
   class="st2" />
		</g>
	</g><polygon
   style="fill:#7a7a31"
   id="polygon1754"
   points="788.9,287.9 668.9,292.1 674.8,219.6 785.8,219.6 "
   class="st7"
   transform="translate(-13,-66.4)" /><g
   id="g1790"
   transform="translate(-13,-66.4)">
		<g
   id="g1788">
			<path
   style="fill:#ffffff"
   inkscape:connector-curvature="0"
   id="path1756"
   d="m 699.7,245.7 c -0.6,0.3 -1.7,0.5 -3,0.5 -4.6,0 -7.2,-3.8 -7.2,-10 0,-7.8 4.1,-10.6 7.7,-10.6 1.3,0 2.2,0.3 2.6,0.5 l -0.6,2.7 c -0.5,-0.2 -1,-0.4 -1.9,-0.4 -2.2,0 -4.5,2 -4.5,7.5 0,5.4 2,7.4 4.5,7.4 0.8,0 1.5,-0.2 2,-0.4 z"
   class="st2" />
			<path
   style="fill:#ffffff"
   inkscape:connector-curvature="0"
   id="path1758"
   d="m 703.4,242.4 -0.8,3.7 h -2.2 l 3.1,-14.2 h 2.6 l 2.9,14.2 h -2.2 l -0.8,-3.7 z m 2.6,-1.8 -0.6,-3.2 c -0.2,-0.9 -0.4,-2.2 -0.5,-3.2 h -0.1 c -0.2,1 -0.4,2.3 -0.5,3.2 l -0.6,3.2 z"
   class="st2" />
			<path
   style="fill:#ffffff"
   inkscape:connector-curvature="0"
   id="path1760"
   d="m 710.8,232.1 c 0.7,-0.2 1.6,-0.3 2.6,-0.3 1.5,0 2.7,0.3 3.5,1.1 0.8,0.7 1.1,1.8 1.1,3 0,1.4 -0.4,2.4 -1,3.2 -0.8,1 -2.2,1.5 -3.4,1.5 -0.2,0 -0.4,0 -0.6,0 v 5.5 h -2.2 z m 2.2,6.6 c 0.2,0 0.3,0 0.5,0 1.5,0 2.3,-1 2.3,-2.6 0,-1.3 -0.5,-2.5 -2.1,-2.5 -0.3,0 -0.6,0 -0.8,0.1 v 5 z"
   class="st2" />
			<path
   style="fill:#ffffff"
   inkscape:connector-curvature="0"
   id="path1762"
   d="m 721.8,242.4 -0.8,3.7 h -2.2 l 3.1,-14.2 h 2.6 l 2.9,14.2 h -2.2 l -0.8,-3.7 z m 2.6,-1.8 -0.6,-3.2 c -0.2,-0.9 -0.4,-2.2 -0.5,-3.2 h -0.1 c -0.2,1 -0.4,2.3 -0.5,3.2 l -0.6,3.2 z"
   class="st2" />
			<path
   style="fill:#ffffff"
   inkscape:connector-curvature="0"
   id="path1764"
   d="m 735.8,245.8 c -0.4,0.2 -1.2,0.4 -2.1,0.4 -3.2,0 -5.1,-2.6 -5.1,-7 0,-5.4 2.9,-7.4 5.4,-7.4 0.9,0 1.6,0.2 1.8,0.4 l -0.4,1.9 c -0.3,-0.2 -0.7,-0.3 -1.3,-0.3 -1.5,0 -3.1,1.4 -3.1,5.3 0,3.8 1.4,5.2 3.1,5.2 0.5,0 1.1,-0.1 1.4,-0.2 z"
   class="st2" />
			<path
   style="fill:#ffffff"
   inkscape:connector-curvature="0"
   id="path1766"
   d="M 739.6,231.9 V 246 h -2.2 v -14.2 h 2.2 z"
   class="st2" />
			<path
   style="fill:#ffffff"
   inkscape:connector-curvature="0"
   id="path1768"
   d="m 743.7,233.9 h -2.5 v -2.1 h 7.3 v 2.1 H 746 V 246 h -2.2 v -12.1 z"
   class="st2" />
			<path
   style="fill:#ffffff"
   inkscape:connector-curvature="0"
   id="path1770"
   d="m 755.6,239.6 h -3.4 v 4.5 h 3.8 v 1.9 h -6 v -14.2 h 5.8 v 1.9 h -3.6 v 3.9 h 3.4 z m 0.5,-10.8 -2.6,2.3 h -1.6 l 1.8,-2.3 z"
   class="st2" />
			<path
   style="fill:#ffffff"
   inkscape:connector-curvature="0"
   id="path1772"
   d="m 764.6,242.4 -0.8,3.7 h -2.2 l 3.1,-14.2 h 2.6 l 2.9,14.2 H 768 l -0.8,-3.7 z m 0.9,-13.6 1.8,2.3 h -1.6 l -2.6,-2.3 z m 1.7,11.8 -0.6,-3.2 c -0.2,-0.9 -0.4,-2.2 -0.5,-3.2 H 766 c -0.2,1 -0.4,2.3 -0.5,3.2 l -0.6,3.2 z"
   class="st2" />
			<path
   style="fill:#ffffff"
   inkscape:connector-curvature="0"
   id="path1774"
   d="m 705.6,275.6 h -3.4 v 4.5 h 3.8 v 1.9 h -6 v -14.2 h 5.8 v 1.9 h -3.6 v 3.9 h 3.4 z m 0.6,-10.8 -2.6,2.3 H 702 l 1.8,-2.3 z"
   class="st2" />
			<path
   style="fill:#ffffff"
   inkscape:connector-curvature="0"
   id="path1776"
   d="m 710,282 -3.2,-14.2 h 2.5 l 1.2,6.3 c 0.3,1.6 0.6,3.4 0.8,5.1 h 0.1 c 0.2,-1.7 0.5,-3.6 0.8,-5.2 l 1.1,-6.3 h 2.4 l -3.3,14.2 H 710 Z"
   class="st2" />
			<path
   style="fill:#ffffff"
   inkscape:connector-curvature="0"
   id="path1778"
   d="m 725.1,274.8 c 0,5.3 -1.9,7.4 -4.4,7.4 -2.8,0 -4.2,-3 -4.2,-7.3 0,-4.2 1.6,-7.2 4.4,-7.2 3,0 4.2,3.3 4.2,7.1 z m -6.3,0.2 c 0,3.1 0.6,5.3 2,5.3 1.5,0 1.9,-2.5 1.9,-5.4 0,-2.6 -0.4,-5.2 -1.9,-5.2 -1.4,0 -2,2.3 -2,5.3 z"
   class="st2" />
			<path
   style="fill:#ffffff"
   inkscape:connector-curvature="0"
   id="path1780"
   d="m 726.9,267.9 h 2.2 v 12.3 h 3.8 v 1.9 h -6 z"
   class="st2" />
			<path
   style="fill:#ffffff"
   inkscape:connector-curvature="0"
   id="path1782"
   d="m 736.7,267.9 v 9.3 c 0,2.3 0.7,3 1.6,3 1,0 1.6,-0.7 1.6,-3 v -9.3 h 2.2 v 8.9 c 0,3.7 -1.4,5.4 -3.9,5.4 -2.6,0 -3.8,-1.8 -3.8,-5.3 v -9 z"
   class="st2" />
			<path
   style="fill:#ffffff"
   inkscape:connector-curvature="0"
   id="path1784"
   d="m 750.2,275.6 h -3.4 v 4.5 h 3.8 v 1.9 h -6.1 v -14.2 h 5.8 v 1.9 h -3.6 v 3.9 h 3.4 v 2 z"
   class="st2" />
			<path
   style="fill:#ffffff"
   inkscape:connector-curvature="0"
   id="path1786"
   d="m 752.5,268.1 c 0.8,-0.2 1.8,-0.3 2.7,-0.3 1.5,0 2.7,0.3 3.5,1 0.8,0.7 1.1,1.7 1.1,2.9 0,1.6 -0.8,2.9 -2.2,3.6 v 0 c 1,0.4 1.5,1.3 1.8,3 0.3,1.7 0.6,3.2 0.9,3.7 H 758 c -0.2,-0.4 -0.5,-1.8 -0.7,-3.4 -0.3,-1.8 -0.8,-2.4 -1.9,-2.4 h -0.5 v 5.9 h -2.2 v -14 z m 2.3,6.3 h 0.6 c 1.3,0 2.2,-1 2.2,-2.5 0,-1.4 -0.6,-2.3 -2,-2.4 -0.3,0 -0.6,0 -0.8,0.1 z"
   class="st2" />
		</g>
	</g><g
   id="g1820"
   transform="translate(-13,-66.4)">
		<g
   id="g1818">
			<path
   style="fill:#231f20"
   inkscape:connector-curvature="0"
   id="path1792"
   d="m 357.2,295.5 c -0.8,-0.8 -1.3,-1.4 -1.8,-1.8 l 0.5,-0.5 1,1 v 0 c -0.3,-1.2 0,-2.2 0.8,-2.9 1.3,-1.2 3.4,-1 5.1,0.9 2,2.2 1.8,4.3 0.5,5.5 -0.8,0.7 -1.8,0.9 -2.7,0.6 v 0 l 3.1,3.3 -0.6,0.5 z m 2.3,1.2 c 0.2,0.2 0.3,0.3 0.5,0.4 1.2,0.8 2.3,0.6 3.1,-0.1 1.2,-1.2 0.8,-2.9 -0.6,-4.4 -1.2,-1.3 -3,-2 -4.2,-0.9 -0.8,0.7 -0.9,2 -0.3,3.1 0.1,0.2 0.2,0.4 0.4,0.6 z"
   class="st9" />
			<path
   style="fill:#231f20"
   inkscape:connector-curvature="0"
   id="path1794"
   d="m 359.1,285 0.6,-0.5 8.2,8.8 -0.6,0.5 z"
   class="st9" />
			<path
   style="fill:#231f20"
   inkscape:connector-curvature="0"
   id="path1796"
   d="m 372.5,286.2 c 0.5,0.6 1,1 1.4,1.4 l -0.5,0.5 -0.9,-0.9 v 0 c 0.2,0.7 0.1,1.8 -0.8,2.7 -0.8,0.8 -2.3,1.2 -4.2,-0.8 l -3.4,-3.6 0.6,-0.5 3.2,3.5 c 1.1,1.2 2.3,1.8 3.4,0.8 0.8,-0.8 0.8,-1.9 0.5,-2.6 -0.1,-0.2 -0.3,-0.5 -0.5,-0.7 l -3.5,-3.8 0.6,-0.5 z"
   class="st9" />
			<path
   style="fill:#231f20"
   inkscape:connector-curvature="0"
   id="path1798"
   d="m 374.7,285.4 c 0.5,-0.1 1.1,-0.3 1.6,-0.7 0.8,-0.8 0.8,-1.7 0.2,-2.3 -0.6,-0.6 -1.2,-0.7 -2.4,-0.3 -1.3,0.4 -2.3,0.4 -3,-0.3 -0.8,-0.9 -0.8,-2.2 0.2,-3.2 0.5,-0.5 1.1,-0.7 1.6,-0.8 l 0.2,0.7 c -0.4,0 -0.9,0.2 -1.4,0.6 -0.7,0.7 -0.6,1.5 -0.1,2 0.5,0.6 1.1,0.5 2.2,0.2 1.2,-0.4 2.3,-0.5 3.1,0.4 1,1.1 0.8,2.4 -0.3,3.5 -0.5,0.5 -1.2,0.8 -1.8,0.9 z"
   class="st9" />
			<path
   style="fill:#231f20"
   inkscape:connector-curvature="0"
   id="path1800"
   d="m 378.4,275.3 c -0.5,-0.6 -1.1,-1.1 -1.6,-1.6 l 0.5,-0.5 1.1,1.1 v 0 c -0.4,-0.9 -0.4,-2 0.4,-2.7 0.1,-0.1 0.1,-0.1 0.2,-0.2 l 0.5,0.6 c -0.1,0.1 -0.2,0.1 -0.2,0.2 -0.8,0.7 -0.7,2 0,3 0.1,0.2 0.3,0.4 0.5,0.6 l 3.1,3.4 -0.6,0.5 z"
   class="st9" />
			<path
   style="fill:#231f20"
   inkscape:connector-curvature="0"
   id="path1802"
   d="m 381.3,264.8 0.1,3.1 -0.4,0.4 -0.5,-2.7 z m 1.8,8.5 c 1.9,2.1 3.5,1.8 4.6,0.8 0.7,-0.7 1,-1.2 1.1,-1.6 l 0.6,0.3 c -0.1,0.4 -0.5,1.1 -1.3,1.9 -1.6,1.5 -3.7,1.1 -5.3,-0.6 -1.8,-2 -2,-4.1 -0.6,-5.4 1.7,-1.6 3.7,-0.2 4.5,0.7 0.1,0.2 0.2,0.3 0.3,0.4 z m 2.8,-3.6 c -0.9,-1 -2.3,-1.7 -3.5,-0.6 -1.1,1.1 -0.6,2.7 0.2,3.7 z"
   class="st9" />
			<path
   style="fill:#231f20"
   inkscape:connector-curvature="0"
   id="path1804"
   d="m 390.3,270.9 c 0.5,-0.1 1.1,-0.3 1.6,-0.7 0.8,-0.8 0.8,-1.7 0.2,-2.3 -0.6,-0.6 -1.2,-0.7 -2.4,-0.3 -1.3,0.4 -2.3,0.4 -3,-0.3 -0.8,-0.9 -0.8,-2.2 0.2,-3.2 0.5,-0.5 1.1,-0.7 1.6,-0.8 l 0.2,0.7 c -0.4,0 -0.9,0.2 -1.4,0.6 -0.7,0.7 -0.6,1.5 -0.1,2 0.5,0.6 1.1,0.5 2.2,0.2 1.2,-0.4 2.3,-0.5 3.1,0.4 1,1.1 0.8,2.4 -0.3,3.5 -0.5,0.5 -1.2,0.8 -1.8,0.9 z"
   class="st9" />
			<path
   style="fill:#231f20"
   inkscape:connector-curvature="0"
   id="path1806"
   d="m 389.1,259.1 c 0.3,0.3 0.3,0.7 0,0.9 -0.3,0.2 -0.6,0.2 -0.9,-0.1 -0.3,-0.3 -0.3,-0.7 0,-0.9 0.3,-0.2 0.7,-0.1 0.9,0.1 z m 6.4,8.3 -5.6,-6 0.6,-0.5 5.6,6 z"
   class="st9" />
			<path
   style="fill:#231f20"
   inkscape:connector-curvature="0"
   id="path1808"
   d="m 389.7,256.4 0.6,-0.5 8.2,8.8 -0.6,0.5 z"
   class="st9" />
			<path
   style="fill:#231f20"
   inkscape:connector-curvature="0"
   id="path1810"
   d="m 394,254.6 c 0.3,0.3 0.3,0.7 0,0.9 -0.3,0.2 -0.6,0.2 -0.9,-0.1 -0.3,-0.3 -0.3,-0.7 0,-0.9 0.3,-0.3 0.7,-0.2 0.9,0.1 z m 6.4,8.3 -5.6,-6 0.6,-0.5 5.6,6 z"
   class="st9" />
			<path
   style="fill:#231f20"
   inkscape:connector-curvature="0"
   id="path1812"
   d="m 400.1,257.4 c 1.9,2.1 3.5,1.8 4.6,0.8 0.7,-0.7 1,-1.2 1.1,-1.6 l 0.6,0.3 c -0.1,0.4 -0.5,1.1 -1.3,1.9 -1.6,1.5 -3.7,1.1 -5.3,-0.6 -1.8,-2 -2,-4.1 -0.6,-5.4 1.7,-1.6 3.7,-0.2 4.5,0.7 0.1,0.2 0.2,0.3 0.3,0.4 z m 2.9,-3.6 c -0.9,-1 -2.3,-1.7 -3.5,-0.6 -1.1,1.1 -0.6,2.7 0.2,3.7 z"
   class="st9" />
			<path
   style="fill:#231f20"
   inkscape:connector-curvature="0"
   id="path1814"
   d="m 404,251 c -0.6,-0.6 -0.9,-0.9 -1.4,-1.4 l 0.5,-0.5 0.9,0.9 v 0 c -0.3,-0.9 -0.1,-2 0.8,-2.8 0.6,-0.5 2.2,-1.4 4.1,0.6 l 3.5,3.7 -0.6,0.5 -3.4,-3.6 c -0.9,-1 -2.2,-1.6 -3.3,-0.6 -0.7,0.7 -0.9,1.8 -0.3,2.8 0.1,0.2 0.3,0.4 0.4,0.6 l 3.5,3.7 -0.6,0.5 z"
   class="st9" />
			<path
   style="fill:#231f20"
   inkscape:connector-curvature="0"
   id="path1816"
   d="m 408,241.5 1.6,1.7 1.5,-1.4 0.4,0.5 -1.5,1.4 3.7,3.9 c 0.7,0.8 1.3,1 1.9,0.4 0.3,-0.2 0.4,-0.5 0.5,-0.6 l 0.5,0.4 c -0.1,0.2 -0.3,0.5 -0.6,0.8 -0.4,0.4 -0.9,0.6 -1.3,0.5 -0.5,-0.1 -1,-0.4 -1.6,-1.1 l -3.5,-3.8 -0.9,0.9 -0.4,-0.5 0.9,-0.9 -1.4,-1.5 z"
   class="st9" />
		</g>
	</g><g
   id="g1852"
   transform="translate(-13,-66.4)">
		<g
   id="g1850">
			<path
   style="fill:#231f20"
   inkscape:connector-curvature="0"
   id="path1822"
   d="m 605.5,411.3 c -0.4,-0.7 -0.7,-1.1 -1,-1.7 l 0.6,-0.4 0.7,1.1 v 0 c 0,-1 0.3,-1.9 1.4,-2.5 0.9,-0.5 1.9,-0.3 2.7,0.4 v 0 c 0,-0.5 0,-1 0.2,-1.3 0.2,-0.6 0.6,-1 1.2,-1.3 0.7,-0.4 2.4,-0.7 3.7,1.7 l 2.4,4.4 -0.7,0.4 -2.4,-4.3 c -0.8,-1.4 -1.8,-2.1 -3,-1.5 -0.8,0.4 -1.1,1.4 -0.9,2.3 0.1,0.2 0.2,0.5 0.3,0.8 l 2.5,4.6 -0.7,0.4 -2.5,-4.6 c -0.7,-1.2 -1.7,-1.9 -2.8,-1.2 -0.8,0.5 -1.2,1.6 -0.9,2.6 0.1,0.2 0.2,0.5 0.3,0.7 l 2.5,4.4 -0.7,0.4 z"
   class="st9" />
			<path
   style="fill:#231f20"
   inkscape:connector-curvature="0"
   id="path1824"
   d="m 623.1,404 c 1.5,2.7 0.5,4.6 -0.9,5.4 -1.6,0.9 -3.6,0.3 -4.9,-2.1 -1.4,-2.5 -0.6,-4.6 0.9,-5.4 1.6,-0.9 3.6,-0.3 4.9,2.1 z m -5.2,2.9 c 0.9,1.6 2.6,2.6 4,1.9 1.4,-0.8 1.4,-2.8 0.5,-4.4 -0.7,-1.3 -2.3,-2.8 -4,-1.9 -1.6,0.9 -1.3,3 -0.5,4.4 z"
   class="st9" />
			<path
   style="fill:#231f20"
   inkscape:connector-curvature="0"
   id="path1826"
   d="m 622.6,397 c 0.2,0.3 0.1,0.7 -0.2,0.9 -0.3,0.2 -0.7,0 -0.9,-0.3 -0.2,-0.3 -0.1,-0.7 0.2,-0.9 0.4,-0.1 0.7,0 0.9,0.3 z m 4.2,9.7 -4,-7.1 0.7,-0.4 4,7.1 z"
   class="st9" />
			<path
   style="fill:#231f20"
   inkscape:connector-curvature="0"
   id="path1828"
   d="m 626.7,399.6 c -0.4,-0.7 -0.7,-1.1 -1,-1.7 l 0.6,-0.4 0.7,1.1 v 0 c -0.1,-0.9 0.4,-2 1.5,-2.5 0.7,-0.4 2.4,-0.8 3.8,1.6 l 2.5,4.5 -0.7,0.4 -2.4,-4.4 c -0.7,-1.2 -1.7,-2.1 -3,-1.4 -0.9,0.5 -1.3,1.6 -1,2.6 0.1,0.2 0.2,0.5 0.3,0.7 l 2.5,4.5 -0.7,0.4 z"
   class="st9" />
			<path
   style="fill:#231f20"
   inkscape:connector-curvature="0"
   id="path1830"
   d="m 636.1,400.3 c 0.5,0 1.1,0 1.7,-0.3 1,-0.6 1.2,-1.4 0.8,-2.2 -0.4,-0.7 -1,-1 -2.2,-0.9 -1.3,0.1 -2.3,-0.2 -2.8,-1 -0.6,-1 -0.2,-2.3 1,-3 0.6,-0.3 1.2,-0.4 1.7,-0.4 v 0.7 c -0.4,0 -0.9,0 -1.5,0.3 -0.8,0.5 -1,1.3 -0.6,1.9 0.4,0.7 1,0.8 2.1,0.7 1.3,-0.1 2.3,0.1 2.9,1.2 0.7,1.3 0.2,2.6 -1.1,3.3 -0.6,0.3 -1.3,0.5 -1.9,0.4 z"
   class="st9" />
			<path
   style="fill:#231f20"
   inkscape:connector-curvature="0"
   id="path1832"
   d="m 642.1,391.4 c -0.4,-0.7 -0.8,-1.4 -1.2,-2 l 0.6,-0.4 0.8,1.3 v 0 c -0.2,-1 0.1,-2.1 1,-2.6 0.1,0 0.2,-0.1 0.3,-0.1 l 0.4,0.7 c -0.1,0 -0.2,0.1 -0.3,0.1 -1,0.5 -1.1,1.8 -0.7,2.9 0.1,0.2 0.2,0.5 0.3,0.7 l 2.2,4 -0.7,0.4 z"
   class="st9" />
			<path
   style="fill:#231f20"
   inkscape:connector-curvature="0"
   id="path1834"
   d="m 647.2,390.5 c 1.4,2.5 3,2.6 4.2,1.9 0.9,-0.5 1.3,-0.9 1.5,-1.3 l 0.5,0.4 c -0.2,0.3 -0.7,1 -1.7,1.5 -1.9,1.1 -3.9,0.2 -5,-1.9 -1.3,-2.3 -0.9,-4.5 0.8,-5.4 2.1,-1.1 3.6,0.7 4.2,1.8 0.1,0.2 0.2,0.3 0.2,0.4 z m 0.3,-8.6 -0.6,3 -0.5,0.3 0.2,-2.7 z m 3.3,5.9 c -0.7,-1.2 -1.9,-2.2 -3.2,-1.4 -1.3,0.7 -1.2,2.4 -0.7,3.6 z"
   class="st9" />
			<path
   style="fill:#231f20"
   inkscape:connector-curvature="0"
   id="path1836"
   d="m 654.8,390 c 0.5,0 1.1,0 1.7,-0.3 1,-0.6 1.2,-1.4 0.8,-2.2 -0.4,-0.7 -1,-1 -2.2,-0.9 -1.3,0.1 -2.3,-0.2 -2.8,-1 -0.6,-1 -0.2,-2.3 1,-3 0.6,-0.3 1.2,-0.4 1.7,-0.4 v 0.7 c -0.4,0 -0.9,0 -1.5,0.3 -0.8,0.5 -1,1.3 -0.6,1.9 0.4,0.7 1,0.8 2.1,0.7 1.3,-0.1 2.3,0.1 2.9,1.2 0.7,1.3 0.2,2.6 -1.1,3.3 -0.6,0.3 -1.3,0.5 -1.9,0.4 z"
   class="st9" />
			<path
   style="fill:#231f20"
   inkscape:connector-curvature="0"
   id="path1838"
   d="m 656.5,378.3 c 0.2,0.3 0.1,0.7 -0.2,0.9 -0.3,0.2 -0.7,0 -0.9,-0.3 -0.2,-0.3 -0.1,-0.7 0.2,-0.9 0.3,-0.2 0.7,0 0.9,0.3 z m 4.1,9.6 -4,-7.1 0.7,-0.4 4,7.1 z"
   class="st9" />
			<path
   style="fill:#231f20"
   inkscape:connector-curvature="0"
   id="path1840"
   d="m 657.7,375.8 0.7,-0.4 5.8,10.5 -0.7,0.4 z"
   class="st9" />
			<path
   style="fill:#231f20"
   inkscape:connector-curvature="0"
   id="path1842"
   d="m 662.3,375 c 0.2,0.3 0.1,0.7 -0.2,0.9 -0.3,0.2 -0.7,0 -0.9,-0.3 -0.2,-0.3 -0.1,-0.7 0.2,-0.9 0.4,-0.1 0.7,0 0.9,0.3 z m 4.2,9.6 -4,-7.1 0.7,-0.4 4,7.1 z"
   class="st9" />
			<path
   style="fill:#231f20"
   inkscape:connector-curvature="0"
   id="path1844"
   d="m 667.5,379.3 c 1.4,2.5 3,2.6 4.2,1.9 0.9,-0.5 1.3,-0.9 1.5,-1.3 l 0.5,0.4 c -0.2,0.3 -0.7,1 -1.7,1.5 -1.9,1.1 -3.9,0.2 -5,-1.9 -1.3,-2.3 -0.9,-4.5 0.8,-5.4 2.1,-1.1 3.6,0.7 4.2,1.8 0.1,0.2 0.2,0.3 0.2,0.4 z m 3.7,-2.8 c -0.7,-1.2 -1.9,-2.2 -3.2,-1.4 -1.3,0.7 -1.2,2.4 -0.7,3.6 z"
   class="st9" />
			<path
   style="fill:#231f20"
   inkscape:connector-curvature="0"
   id="path1846"
   d="m 672.9,374 c -0.4,-0.7 -0.7,-1.1 -1,-1.7 l 0.6,-0.4 0.7,1.1 v 0 c -0.1,-0.9 0.4,-2 1.5,-2.5 0.7,-0.4 2.4,-0.8 3.8,1.6 l 2.5,4.5 -0.7,0.4 -2.4,-4.4 c -0.7,-1.2 -1.7,-2.1 -3,-1.4 -0.9,0.5 -1.3,1.6 -1,2.6 0.1,0.2 0.2,0.5 0.3,0.7 l 2.5,4.5 -0.7,0.4 z"
   class="st9" />
			<path
   style="fill:#231f20"
   inkscape:connector-curvature="0"
   id="path1848"
   d="m 679,365.7 1.1,2 1.8,-1 0.3,0.6 -1.8,1 2.6,4.7 c 0.5,0.9 1.1,1.2 1.7,0.9 0.3,-0.2 0.5,-0.3 0.6,-0.5 l 0.4,0.5 c -0.2,0.2 -0.4,0.4 -0.8,0.6 -0.5,0.3 -1,0.3 -1.4,0.2 -0.5,-0.2 -0.9,-0.7 -1.3,-1.5 l -2.5,-4.5 -1.1,0.6 -0.3,-0.6 1.1,-0.6 -1,-1.8 z"
   class="st9" />
		</g>
	</g><rect
   style="fill:none"
   id="rect1854"
   height="30.200001"
   width="659.70001"
   class="st16"
   y="487.30002"
   x="116.2" /><g
   id="Axes"
   transform="translate(-13,-66.4)">
		<g
   id="g1960">
			<g
   id="g1958">
				<line
   style="fill:none;stroke:#403f5a;stroke-miterlimit:10"
   id="line1952"
   y2="514"
   x2="78.900002"
   y1="119.8"
   x1="78.900002"
   class="st21" />
				<g
   id="g1956">
					<path
   style="fill:#403f5a"
   inkscape:connector-curvature="0"
   id="path1954"
   d="m 74.1,126.7 c 0.2,0.1 0.5,0.1 0.7,-0.2 l 4.1,-6.5 4.1,6.5 c 0.1,0.2 0.5,0.3 0.7,0.2 0.2,-0.1 0.3,-0.5 0.2,-0.7 l -4.5,-7.1 c -0.1,-0.1 -0.3,-0.2 -0.4,-0.2 -0.2,0 -0.3,0.1 -0.4,0.2 l -4.5,7.1 c -0.1,0.1 -0.1,0.2 -0.1,0.3 -0.1,0.1 0,0.3 0.1,0.4 z"
   class="st0" />
				</g>
			</g>
		</g>
		<g
   id="g1970">
			<g
   id="g1968">
				<line
   style="fill:none;stroke:#403f5a;stroke-miterlimit:10"
   id="line1962"
   y2="514"
   x2="78.900002"
   y1="514"
   x1="761.79999"
   class="st21" />
				<g
   id="g1966">
					<path
   style="fill:#403f5a"
   inkscape:connector-curvature="0"
   id="path1964"
   d="m 755,509.2 c -0.1,0.2 -0.1,0.5 0.2,0.7 l 6.5,4.1 -6.5,4.1 c -0.2,0.1 -0.3,0.5 -0.2,0.7 0.1,0.2 0.5,0.3 0.7,0.2 l 7.1,-4.5 c 0.1,-0.1 0.2,-0.3 0.2,-0.4 0,-0.1 -0.1,-0.3 -0.2,-0.4 l -7.1,-4.5 c -0.1,-0.1 -0.2,-0.1 -0.3,-0.1 -0.2,-0.1 -0.4,0 -0.4,0.1 z"
   class="st0" />
				</g>
			</g>
		</g>
	</g><g
   id="g1985"
   transform="translate(-13,-66.4)">
		<g
   id="g1983">
			<path
   style="fill:#231f20"
   inkscape:connector-curvature="0"
   id="path1973"
   d="m 402.3,527.3 h -3.1 v -1.2 h 7.6 v 1.2 h -3.1 v 10.2 h -1.4 z"
   class="st9" />
			<path
   style="fill:#231f20"
   inkscape:connector-curvature="0"
   id="path1975"
   d="m 408.9,533.6 c 0,2.2 1.2,2.9 2.6,2.9 0.9,0 1.5,-0.2 2,-0.4 l 0.2,1 c -0.5,0.2 -1.4,0.5 -2.5,0.5 -2.4,0 -3.7,-1.7 -3.7,-4.1 0,-2.5 1.4,-4.4 3.5,-4.4 2.4,0 3.1,2.2 3.1,3.8 0,0.3 0,0.5 0,0.7 z m 3.8,-1 c 0,-1.2 -0.4,-2.4 -1.8,-2.4 -1.3,0 -1.9,1.3 -2,2.4 z"
   class="st9" />
			<path
   style="fill:#231f20"
   inkscape:connector-curvature="0"
   id="path1977"
   d="m 415.8,531.5 c 0,-0.9 0,-1.5 -0.1,-2.2 h 1.3 l 0.1,1.2 v 0 c 0.4,-0.7 1.1,-1.4 2.4,-1.4 1,0 1.8,0.6 2.1,1.5 v 0 c 0.2,-0.5 0.6,-0.8 0.9,-1 0.4,-0.3 0.9,-0.5 1.6,-0.5 1.1,0 2.5,0.7 2.5,3.4 v 5 h -1.4 v -4.8 c 0,-1.4 -0.5,-2.4 -1.6,-2.4 -0.8,0 -1.4,0.6 -1.6,1.3 -0.1,0.2 -0.1,0.5 -0.1,0.7 v 5.1 h -1.4 v -5.1 c 0,-1.2 -0.5,-2.1 -1.5,-2.1 -0.8,0 -1.5,0.7 -1.7,1.4 -0.1,0.2 -0.1,0.5 -0.1,0.7 v 5 h -1.4 z"
   class="st9" />
			<path
   style="fill:#231f20"
   inkscape:connector-curvature="0"
   id="path1979"
   d="m 428.9,532 c 0,-1.1 0,-1.9 -0.1,-2.6 h 1.3 l 0.1,1.3 v 0 c 0.6,-1 1.4,-1.5 2.6,-1.5 1.8,0 3.2,1.6 3.2,4.2 0,3 -1.6,4.4 -3.4,4.4 -1,0 -1.8,-0.5 -2.2,-1.2 v 0 4.4 H 429 v -9 z m 1.4,2.3 c 0,0.2 0,0.4 0.1,0.6 0.3,1.1 1.1,1.6 1.9,1.6 1.4,0 2.2,-1.4 2.2,-3.2 0,-1.7 -0.7,-3.1 -2.1,-3.1 -0.9,0 -1.7,0.7 -1.9,1.7 0,0.2 -0.1,0.4 -0.1,0.6 v 1.8 z"
   class="st9" />
			<path
   style="fill:#231f20"
   inkscape:connector-curvature="0"
   id="path1981"
   d="m 437.5,536.1 c 0.4,0.3 1.1,0.5 1.8,0.5 1,0 1.5,-0.5 1.5,-1.2 0,-0.7 -0.4,-1.1 -1.4,-1.5 -1.4,-0.6 -2,-1.4 -2,-2.3 0,-1.3 1.1,-2.4 2.7,-2.4 0.8,0 1.4,0.2 1.8,0.5 l -0.4,1.1 c -0.3,-0.2 -0.8,-0.5 -1.5,-0.5 -0.8,0 -1.3,0.5 -1.3,1.1 0,0.6 0.4,0.9 1.4,1.4 1.3,0.6 2,1.3 2,2.5 0,1.5 -1.1,2.5 -2.9,2.5 -0.8,0 -1.6,-0.2 -2.1,-0.5 z"
   class="st9" />
		</g>
	</g><g
   id="g1995"
   transform="translate(-13,-66.4)">
		<g
   id="g1993">
			<line
   style="fill:none;stroke:#173f6e;stroke-miterlimit:10"
   id="line1987"
   y2="229.3"
   x2="157.10001"
   y1="229.3"
   x1="226.8"
   class="st22" />
			<g
   id="g1991">
				<polygon
   style="fill:#173f6e"
   id="polygon1989"
   points="223.5,233.4 227.9,229.3 223.5,225.2 222.8,225.9 226.4,229.3 222.8,232.6 "
   class="st6" />
			</g>
		</g>
	</g><line
   style="fill:none;stroke:#173f6e;stroke-miterlimit:10"
   id="line1997"
   y2="180.70001"
   x2="144.10001"
   y1="158.90001"
   x1="144.10001"
   class="st22" /><g
   id="g2007"
   transform="translate(-13,-66.4)">
		<g
   id="g2005">
			<line
   style="fill:none;stroke:#d5b12a;stroke-miterlimit:10"
   id="line1999"
   y2="252.5"
   x2="321.89999"
   y1="490.10001"
   x1="321.89999"
   class="st23" />
			<g
   id="g2003">
				<polygon
   style="fill:#d5b12a"
   id="polygon2001"
   points="317.8,486.8 321.9,491.2 326,486.8 325.2,486.1 321.9,489.7 318.5,486.1 "
   class="st1" />
			</g>
		</g>
	</g><line
   style="fill:none;stroke:#d5b12a;stroke-miterlimit:10"
   id="line2009"
   y2="186.10001"
   x2="233.3"
   y1="186.10001"
   x1="316.89999"
   class="st23" /><line
   id="line2011"
   y2="186.10001"
   x2="512.59998"
   y1="186.10001"
   x1="642.20001"
   style="fill:none;stroke:#7a7a31;stroke-miterlimit:10" /><g
   id="g2021"
   transform="translate(-13,-66.4)">
		<g
   id="g2019">
			<line
   style="fill:none;stroke:#996527;stroke-miterlimit:10"
   id="line2013"
   y2="187"
   x2="321.89999"
   y1="187"
   x1="592.5"
   class="st25" />
			<g
   id="g2017">
				<polygon
   style="fill:#996527"
   id="polygon2015"
   points="589.2,191 593.6,187 589.2,182.9 588.5,183.6 592.1,187 588.5,190.3 "
   class="st5" />
			</g>
		</g>
	</g><line
   style="fill:none;stroke:#996527;stroke-miterlimit:10"
   id="line2023"
   y2="112.9"
   x2="308.89999"
   y1="172"
   x1="308.89999"
   class="st25" /><g
   id="g2033"
   transform="translate(-13,-66.4)">
		<g
   id="g2031">
			<line
   id="line2025"
   y2="252.5"
   x2="648.5"
   y1="191.8"
   x1="648.5"
   style="fill:none;stroke:#7a7a31;stroke-miterlimit:10" />
			<g
   id="g2029">
				<polygon
   style="fill:#7a7a31"
   id="polygon2027"
   points="652.6,195.1 648.5,190.7 644.4,195.1 645.2,195.7 648.5,192.1 651.9,195.7 "
   class="st7" />
			</g>
		</g>
	</g>
<g
   id="Carte"
   transform="translate(-13,-66.4)">
</g>
<g
   id="Empreinte_carbone"
   transform="translate(-13,-66.4)">
</g>
<g
   id="Construction"
   class="st58"
   style="display:none"
   transform="translate(-13,-66.4)">
	<g
   class="st59"
   id="g2178"
   style="display:inline">
		<g
   id="g2056">
			<g
   id="g2054">
				<polyline
   class="st60"
   points="53,47 53,53 47,53     "
   id="polyline2038"
   style="fill:none;stroke:#f05253;stroke-width:0.5;stroke-miterlimit:10" />
				<line
   class="st61"
   x1="33.299999"
   y1="53"
   x2="12.8"
   y2="53"
   id="line2040"
   style="fill:none;stroke:#f05253;stroke-width:0.5;stroke-miterlimit:10;stroke-dasharray:13.6631, 13.6631" />
				<polyline
   class="st60"
   points="6,53 0,53 0,47     "
   id="polyline2042"
   style="fill:none;stroke:#f05253;stroke-width:0.5;stroke-miterlimit:10" />
				<line
   class="st61"
   x1="0"
   y1="33.299999"
   x2="0"
   y2="12.8"
   id="line2044"
   style="fill:none;stroke:#f05253;stroke-width:0.5;stroke-miterlimit:10;stroke-dasharray:13.6631, 13.6631" />
				<polyline
   class="st60"
   points="0,6 0,0 6,0     "
   id="polyline2046"
   style="fill:none;stroke:#f05253;stroke-width:0.5;stroke-miterlimit:10" />
				<line
   class="st61"
   x1="19.700001"
   y1="0"
   x2="40.200001"
   y2="0"
   id="line2048"
   style="fill:none;stroke:#f05253;stroke-width:0.5;stroke-miterlimit:10;stroke-dasharray:13.6631, 13.6631" />
				<polyline
   class="st60"
   points="47,0 53,0 53,6     "
   id="polyline2050"
   style="fill:none;stroke:#f05253;stroke-width:0.5;stroke-miterlimit:10" />
				<line
   class="st61"
   x1="53"
   y1="19.700001"
   x2="53"
   y2="40.200001"
   id="line2052"
   style="fill:none;stroke:#f05253;stroke-width:0.5;stroke-miterlimit:10;stroke-dasharray:13.6631, 13.6631" />
			</g>
		</g>
		<g
   id="g2076">
			<g
   id="g2074">
				<polyline
   class="st60"
   points="788.9,100 788.9,106 782.9,106     "
   id="polyline2058"
   style="fill:none;stroke:#f05253;stroke-width:0.5;stroke-miterlimit:10" />
				<line
   class="st61"
   x1="769.20001"
   y1="106"
   x2="748.70001"
   y2="106"
   id="line2060"
   style="fill:none;stroke:#f05253;stroke-width:0.5;stroke-miterlimit:10;stroke-dasharray:13.6631, 13.6631" />
				<polyline
   class="st60"
   points="741.9,106 735.9,106 735.9,100     "
   id="polyline2062"
   style="fill:none;stroke:#f05253;stroke-width:0.5;stroke-miterlimit:10" />
				<line
   class="st61"
   x1="735.90002"
   y1="86.300003"
   x2="735.90002"
   y2="65.800003"
   id="line2064"
   style="fill:none;stroke:#f05253;stroke-width:0.5;stroke-miterlimit:10;stroke-dasharray:13.6631, 13.6631" />
				<polyline
   class="st60"
   points="735.9,59 735.9,53 741.9,53     "
   id="polyline2066"
   style="fill:none;stroke:#f05253;stroke-width:0.5;stroke-miterlimit:10" />
				<line
   class="st61"
   x1="755.59998"
   y1="53"
   x2="776.09998"
   y2="53"
   id="line2068"
   style="fill:none;stroke:#f05253;stroke-width:0.5;stroke-miterlimit:10;stroke-dasharray:13.6631, 13.6631" />
				<polyline
   class="st60"
   points="782.9,53 788.9,53 788.9,59     "
   id="polyline2070"
   style="fill:none;stroke:#f05253;stroke-width:0.5;stroke-miterlimit:10" />
				<line
   class="st61"
   x1="788.90002"
   y1="72.699997"
   x2="788.90002"
   y2="93.099998"
   id="line2072"
   style="fill:none;stroke:#f05253;stroke-width:0.5;stroke-miterlimit:10;stroke-dasharray:13.6631, 13.6631" />
			</g>
		</g>
		<g
   id="g2096">
			<g
   id="g2094">
				<polyline
   class="st60"
   points="841.9,47 841.9,53 835.9,53     "
   id="polyline2078"
   style="fill:none;stroke:#f05253;stroke-width:0.5;stroke-miterlimit:10" />
				<line
   class="st61"
   x1="822.20001"
   y1="53"
   x2="801.70001"
   y2="53"
   id="line2080"
   style="fill:none;stroke:#f05253;stroke-width:0.5;stroke-miterlimit:10;stroke-dasharray:13.6631, 13.6631" />
				<polyline
   class="st60"
   points="794.9,53 788.9,53 788.9,47     "
   id="polyline2082"
   style="fill:none;stroke:#f05253;stroke-width:0.5;stroke-miterlimit:10" />
				<line
   class="st61"
   x1="788.90002"
   y1="33.299999"
   x2="788.90002"
   y2="12.8"
   id="line2084"
   style="fill:none;stroke:#f05253;stroke-width:0.5;stroke-miterlimit:10;stroke-dasharray:13.6631, 13.6631" />
				<polyline
   class="st60"
   points="788.9,6 788.9,0 794.9,0     "
   id="polyline2086"
   style="fill:none;stroke:#f05253;stroke-width:0.5;stroke-miterlimit:10" />
				<line
   class="st61"
   x1="808.59998"
   y1="0"
   x2="829.09998"
   y2="0"
   id="line2088"
   style="fill:none;stroke:#f05253;stroke-width:0.5;stroke-miterlimit:10;stroke-dasharray:13.6631, 13.6631" />
				<polyline
   class="st60"
   points="835.9,0 841.9,0 841.9,6     "
   id="polyline2090"
   style="fill:none;stroke:#f05253;stroke-width:0.5;stroke-miterlimit:10" />
				<line
   class="st61"
   x1="841.90002"
   y1="19.700001"
   x2="841.90002"
   y2="40.200001"
   id="line2092"
   style="fill:none;stroke:#f05253;stroke-width:0.5;stroke-miterlimit:10;stroke-dasharray:13.6631, 13.6631" />
			</g>
		</g>
		<g
   id="g2116">
			<g
   id="g2114">
				<polyline
   class="st60"
   points="841.9,589.3 841.9,595.3 835.9,595.3     "
   id="polyline2098"
   style="fill:none;stroke:#f05253;stroke-width:0.5;stroke-miterlimit:10" />
				<line
   class="st61"
   x1="822.20001"
   y1="595.29999"
   x2="801.70001"
   y2="595.29999"
   id="line2100"
   style="fill:none;stroke:#f05253;stroke-width:0.5;stroke-miterlimit:10;stroke-dasharray:13.6631, 13.6631" />
				<polyline
   class="st60"
   points="794.9,595.3 788.9,595.3 788.9,589.3     "
   id="polyline2102"
   style="fill:none;stroke:#f05253;stroke-width:0.5;stroke-miterlimit:10" />
				<line
   class="st61"
   x1="788.90002"
   y1="575.59998"
   x2="788.90002"
   y2="555.09998"
   id="line2104"
   style="fill:none;stroke:#f05253;stroke-width:0.5;stroke-miterlimit:10;stroke-dasharray:13.6631, 13.6631" />
				<polyline
   class="st60"
   points="788.9,548.3 788.9,542.3 794.9,542.3     "
   id="polyline2106"
   style="fill:none;stroke:#f05253;stroke-width:0.5;stroke-miterlimit:10" />
				<line
   class="st61"
   x1="808.59998"
   y1="542.29999"
   x2="829.09998"
   y2="542.29999"
   id="line2108"
   style="fill:none;stroke:#f05253;stroke-width:0.5;stroke-miterlimit:10;stroke-dasharray:13.6631, 13.6631" />
				<polyline
   class="st60"
   points="835.9,542.3 841.9,542.3 841.9,548.3     "
   id="polyline2110"
   style="fill:none;stroke:#f05253;stroke-width:0.5;stroke-miterlimit:10" />
				<line
   class="st61"
   x1="841.90002"
   y1="561.90002"
   x2="841.90002"
   y2="582.40002"
   id="line2112"
   style="fill:none;stroke:#f05253;stroke-width:0.5;stroke-miterlimit:10;stroke-dasharray:13.6631, 13.6631" />
			</g>
		</g>
		<g
   id="g2136">
			<g
   id="g2134">
				<polyline
   class="st60"
   points="53,589.3 53,595.3 47,595.3     "
   id="polyline2118"
   style="fill:none;stroke:#f05253;stroke-width:0.5;stroke-miterlimit:10" />
				<line
   class="st61"
   x1="33.299999"
   y1="595.29999"
   x2="12.8"
   y2="595.29999"
   id="line2120"
   style="fill:none;stroke:#f05253;stroke-width:0.5;stroke-miterlimit:10;stroke-dasharray:13.6631, 13.6631" />
				<polyline
   class="st60"
   points="6,595.3 0,595.3 0,589.3     "
   id="polyline2122"
   style="fill:none;stroke:#f05253;stroke-width:0.5;stroke-miterlimit:10" />
				<line
   class="st61"
   x1="0"
   y1="575.59998"
   x2="0"
   y2="555.09998"
   id="line2124"
   style="fill:none;stroke:#f05253;stroke-width:0.5;stroke-miterlimit:10;stroke-dasharray:13.6631, 13.6631" />
				<polyline
   class="st60"
   points="0,548.3 0,542.3 6,542.3     "
   id="polyline2126"
   style="fill:none;stroke:#f05253;stroke-width:0.5;stroke-miterlimit:10" />
				<line
   class="st61"
   x1="19.700001"
   y1="542.29999"
   x2="40.200001"
   y2="542.29999"
   id="line2128"
   style="fill:none;stroke:#f05253;stroke-width:0.5;stroke-miterlimit:10;stroke-dasharray:13.6631, 13.6631" />
				<polyline
   class="st60"
   points="47,542.3 53,542.3 53,548.3     "
   id="polyline2130"
   style="fill:none;stroke:#f05253;stroke-width:0.5;stroke-miterlimit:10" />
				<line
   class="st61"
   x1="53"
   y1="561.90002"
   x2="53"
   y2="582.40002"
   id="line2132"
   style="fill:none;stroke:#f05253;stroke-width:0.5;stroke-miterlimit:10;stroke-dasharray:13.6631, 13.6631" />
			</g>
		</g>
		<g
   id="g2146">
			<g
   id="g2144">
				<line
   class="st60"
   x1="53"
   y1="106"
   x2="53"
   y2="112"
   id="line2138"
   style="fill:none;stroke:#f05253;stroke-width:0.5;stroke-miterlimit:10" />
				<line
   class="st62"
   x1="53"
   y1="124.1"
   x2="53"
   y2="530.20001"
   id="line2140"
   style="fill:none;stroke:#f05253;stroke-width:0.5;stroke-miterlimit:10;stroke-dasharray:12.1231, 12.1231" />
				<line
   class="st60"
   x1="53"
   y1="536.29999"
   x2="53"
   y2="542.29999"
   id="line2142"
   style="fill:none;stroke:#f05253;stroke-width:0.5;stroke-miterlimit:10" />
			</g>
		</g>
		<g
   id="g2156">
			<g
   id="g2154">
				<line
   class="st60"
   x1="53"
   y1="106"
   x2="59"
   y2="106"
   id="line2148"
   style="fill:none;stroke:#f05253;stroke-width:0.5;stroke-miterlimit:10" />
				<line
   class="st63"
   x1="70.900002"
   y1="106"
   x2="777"
   y2="106"
   id="line2150"
   style="fill:none;stroke:#f05253;stroke-width:0.5;stroke-miterlimit:10;stroke-dasharray:11.8674, 11.8674" />
				<line
   class="st60"
   x1="782.90002"
   y1="106"
   x2="788.90002"
   y2="106"
   id="line2152"
   style="fill:none;stroke:#f05253;stroke-width:0.5;stroke-miterlimit:10" />
			</g>
		</g>
		<g
   id="g2166">
			<g
   id="g2164">
				<line
   class="st60"
   x1="788.90002"
   y1="53"
   x2="788.90002"
   y2="59"
   id="line2158"
   style="fill:none;stroke:#f05253;stroke-width:0.5;stroke-miterlimit:10" />
				<line
   class="st64"
   x1="788.90002"
   y1="71.199997"
   x2="788.90002"
   y2="530.20001"
   id="line2160"
   style="fill:none;stroke:#f05253;stroke-width:0.5;stroke-miterlimit:10;stroke-dasharray:12.2384, 12.2384" />
				<line
   class="st60"
   x1="788.90002"
   y1="536.29999"
   x2="788.90002"
   y2="542.29999"
   id="line2162"
   style="fill:none;stroke:#f05253;stroke-width:0.5;stroke-miterlimit:10" />
			</g>
		</g>
		<g
   id="g2176">
			<g
   id="g2174">
				<line
   class="st60"
   x1="788.90002"
   y1="542.29999"
   x2="782.90002"
   y2="542.29999"
   id="line2168"
   style="fill:none;stroke:#f05253;stroke-width:0.5;stroke-miterlimit:10" />
				<line
   class="st63"
   x1="771"
   y1="542.29999"
   x2="64.900002"
   y2="542.29999"
   id="line2170"
   style="fill:none;stroke:#f05253;stroke-width:0.5;stroke-miterlimit:10;stroke-dasharray:11.8674, 11.8674" />
				<line
   class="st60"
   x1="59"
   y1="542.29999"
   x2="53"
   y2="542.29999"
   id="line2172"
   style="fill:none;stroke:#f05253;stroke-width:0.5;stroke-miterlimit:10" />
			</g>
		</g>
	</g>
</g>
</svg>