<?xml version="1.0" encoding="utf-8"?>
<!-- Generator: Adobe Illustrator 23.0.3, SVG Export Plug-In . SVG Version: 6.00 Build 0)  -->
<svg version="1.1" id="Capa_1" xmlns="http://www.w3.org/2000/svg" xmlns:xlink="http://www.w3.org/1999/xlink" x="0px" y="0px"
	 viewBox="0 0 512 512" style="enable-background:new 0 0 512 512;" xml:space="preserve">
<style type="text/css">
	.st0{display:none;fill:#FFFDF5;}
	.st1{display:none;fill:#202225;}
	.st2{fill:#E2E0DC;}
	.st3{fill:#FFFDF5;}
	.st4{fill:#2D2F32;}
	.st5{fill:#202225;}
	.st6{fill:#2875BB;}
</style>
<rect class="st0" width="512" height="512"/>
<rect class="st1" width="512" height="512"/>
<path class="st2" d="M177.8,105.9H488C487.7,79.7,468.9,61,445.6,61H135.5C158.7,61,177.5,79.7,177.8,105.9z"/>
<path class="st3" d="M403.2,103.3c0-23.4,18.9-42.3,42.3-42.3H135.4C112,61,93.1,80,93.1,103.3V451h267.9
	c23.4,0,42.3-18.9,42.3-42.3V103.3z"/>
<g>
	<path class="st2" d="M394.2,61c-23.4,0-42.3,18.9-42.3,42.3v305.3c0,23.4-18.9,42.3-42.3,42.3h51.4c23.4,0,42.3-18.9,42.3-42.3
		V103.3c0-23.4,18.9-42.3,42.3-42.3H394.2z"/>
	<path class="st2" d="M317.7,406.1H7.5C7.8,432.3,26.6,451,49.8,451H360C336.8,451,317.9,432.3,317.7,406.1z"/>
</g>
<path class="st4" d="M289.2,326c8.7-27.1,16.5-54.7,35.1-75.9c40.4-46.1,121.5-59.7,180.2-58.2c-18.4,15.2-34.4,30.5-53,50.7
	c-20.8,22.5-66.3,52.5-88.2,59.3C329.3,312.3,313.5,314,289.2,326z"/>
<path class="st5" d="M289.2,326c8.7-27.1,156.5-135.6,215.3-134.1c-18.4,15.2-34.4,30.5-53,50.7c-20.8,22.5-66.3,52.5-88.2,59.3
	C329.3,312.3,313.5,314,289.2,326z"/>
<path class="st6" d="M367.5,137.8c0-4.1-3.4-7.5-7.5-7.5H200.2c-4.1,0-7.5,3.4-7.5,7.5s3.4,7.5,7.5,7.5H360
	C364.1,145.3,367.5,141.9,367.5,137.8z"/>
<path class="st6" d="M140,145.3h25.3c4.1,0,7.5-3.4,7.5-7.5s-3.4-7.5-7.5-7.5H140c-4.1,0-7.5,3.4-7.5,7.5S135.8,145.3,140,145.3z"/>
<path class="st6" d="M140,360.3c-4.1,0-7.5,3.4-7.5,7.5c0,4.1,3.4,7.5,7.5,7.5h78.5c4.1,0,7.5-3.4,7.5-7.5c0-4.1-3.4-7.5-7.5-7.5
	H140z"/>
<path class="st6" d="M257.5,291.2c0-4.1-3.4-7.5-7.5-7.5H140c-4.1,0-7.5,3.4-7.5,7.5c0,4.1,3.4,7.5,7.5,7.5h110
	C254.1,298.7,257.5,295.3,257.5,291.2z"/>
<path class="st6" d="M311,214.5c0-4.1-3.4-7.5-7.5-7.5H140c-4.1,0-7.5,3.4-7.5,7.5s3.4,7.5,7.5,7.5h163.5
	C307.7,222,311,218.6,311,214.5z"/>
<path class="st6" d="M403.2,310.2c-4.1,0-7.5,3.4-7.5,7.5v90.9c0,19.2-15.6,34.8-34.8,34.8H360c-19.6,0-34.6-16.1-34.8-37.4
	c0-4.1-3.4-7.4-7.5-7.4H100.6V103.3c0-19.2,15.6-34.8,34.8-34.8H410c-0.2,0.2-0.4,0.5-0.6,0.7c-0.3,0.3-0.5,0.6-0.8,0.8
	c-0.3,0.3-0.5,0.6-0.8,0.9c-0.3,0.3-0.5,0.6-0.8,0.9c-0.3,0.3-0.5,0.6-0.7,0.9c-0.2,0.3-0.5,0.6-0.7,0.9c-0.2,0.3-0.5,0.7-0.7,1
	c-0.2,0.3-0.5,0.6-0.7,1c-0.2,0.3-0.4,0.7-0.6,1c-0.2,0.3-0.4,0.7-0.6,1c-0.2,0.3-0.4,0.7-0.6,1c-0.2,0.3-0.4,0.7-0.6,1
	c-0.2,0.4-0.4,0.7-0.5,1.1c-0.2,0.4-0.4,0.7-0.5,1.1c-0.2,0.4-0.3,0.7-0.5,1.1c-0.2,0.4-0.3,0.7-0.5,1.1c-0.2,0.4-0.3,0.8-0.4,1.1
	c-0.1,0.4-0.3,0.7-0.4,1.1c-0.1,0.4-0.3,0.8-0.4,1.2c-0.1,0.4-0.3,0.7-0.4,1.1c-0.1,0.4-0.2,0.8-0.3,1.2c-0.1,0.4-0.2,0.8-0.3,1.1
	c-0.1,0.4-0.2,0.8-0.3,1.3c-0.1,0.4-0.2,0.7-0.3,1.1c-0.1,0.4-0.2,0.9-0.2,1.3c-0.1,0.4-0.1,0.7-0.2,1.1c-0.1,0.5-0.1,1-0.2,1.4
	c0,0.3-0.1,0.7-0.1,1c-0.1,0.5-0.1,1.1-0.1,1.6c0,0.3-0.1,0.6-0.1,0.9c0,0.8-0.1,1.7-0.1,2.5v2.5v64.1c0,4.1,3.4,7.5,7.5,7.5
	c4.1,0,7.5-3.4,7.5-7.5v-56.6H488c2,0,3.9-0.8,5.3-2.2c1.4-1.4,2.2-3.4,2.2-5.4c-0.3-29.8-21.7-52.3-49.9-52.3H135.4
	c-27.5,0-49.8,22.4-49.8,49.8v295.3H7.5c-2,0-3.9,0.8-5.3,2.2c-1.4,1.4-2.2,3.4-2.2,5.4c0.3,29.8,21.7,52.3,49.8,52.3H360h0.9
	c27.5,0,49.8-22.4,49.8-49.8v-90.9C410.8,313.6,407.4,310.2,403.2,310.2z M411.1,98.2c0-0.2,0.1-0.5,0.1-0.7c0.1-0.3,0.1-0.6,0.2-1
	c0-0.2,0.1-0.5,0.2-0.7c0.1-0.3,0.1-0.6,0.2-0.9c0.1-0.2,0.1-0.5,0.2-0.7c0.1-0.3,0.2-0.6,0.2-0.8c0.1-0.3,0.2-0.5,0.2-0.8
	c0.1-0.3,0.2-0.5,0.3-0.8c0.1-0.3,0.2-0.5,0.3-0.8c0.1-0.2,0.2-0.5,0.3-0.7c0.1-0.3,0.2-0.5,0.3-0.8c0.1-0.2,0.2-0.5,0.3-0.7
	c0.1-0.3,0.2-0.5,0.4-0.8c0.1-0.2,0.2-0.4,0.3-0.6c0.1-0.3,0.3-0.6,0.5-0.9c0.1-0.1,0.1-0.2,0.2-0.3c0.7-1.2,1.5-2.4,2.3-3.5
	c0,0,0,0,0,0c0.3-0.4,0.5-0.7,0.8-1.1c0-0.1,0.1-0.1,0.1-0.2c0.3-0.3,0.6-0.7,0.8-1c0.1-0.1,0.1-0.1,0.2-0.2c0.3-0.3,0.6-0.7,0.9-1
	c0-0.1,0.1-0.1,0.1-0.2c0.3-0.3,0.6-0.6,1-1c0,0,0.1-0.1,0.1-0.1c0.3-0.3,0.7-0.7,1.1-1c0,0,0,0,0,0c4.6-4,10.3-6.8,16.5-8
	c0,0,0,0,0,0c0.5-0.1,1-0.2,1.5-0.3c0,0,0.1,0,0.1,0c0.5-0.1,1-0.1,1.5-0.2c0.1,0,0.2,0,0.2,0c0.5,0,0.9-0.1,1.4-0.1
	c0.3,0,0.5,0,0.8,0c0.3,0,0.6,0,0.9,0c17.2,0,30.9,12.4,34.1,29.8h-68.6C411.1,98.3,411.1,98.2,411.1,98.2z M49.8,443.5
	c-17.2,0-30.9-12.4-34.1-29.8h77.3h217.6c0.1,0.8,0.2,1.5,0.4,2.3c0,0.3,0.1,0.5,0.1,0.8c0.1,0.5,0.2,1,0.3,1.5
	c0.1,0.3,0.1,0.6,0.2,0.9c0.1,0.4,0.2,0.9,0.3,1.3c0.1,0.3,0.2,0.6,0.3,0.9c0.1,0.4,0.2,0.8,0.4,1.3c0.1,0.3,0.2,0.6,0.3,0.9
	c0.1,0.4,0.3,0.8,0.4,1.2c0.1,0.3,0.2,0.6,0.3,0.9c0.1,0.4,0.3,0.8,0.5,1.2c0.1,0.3,0.2,0.6,0.4,0.9c0.2,0.4,0.3,0.8,0.5,1.2
	c0.1,0.3,0.2,0.6,0.4,0.8c0.2,0.4,0.4,0.8,0.6,1.2c0.1,0.3,0.2,0.5,0.4,0.8c0.2,0.5,0.5,0.9,0.8,1.4c0.1,0.2,0.2,0.3,0.3,0.5
	c0.4,0.6,0.7,1.2,1.1,1.9c0.1,0.1,0.2,0.3,0.3,0.4c0.3,0.5,0.6,0.9,0.9,1.4c0.1,0.2,0.3,0.4,0.4,0.6c0.3,0.4,0.5,0.8,0.8,1.1
	c0.2,0.2,0.3,0.4,0.5,0.7c0.3,0.3,0.5,0.7,0.8,1c0.2,0.2,0.4,0.4,0.6,0.7c0.3,0.3,0.6,0.6,0.8,1c0.2,0.2,0.4,0.4,0.6,0.6
	c0.1,0.1,0.3,0.3,0.4,0.5L49.8,443.5L49.8,443.5z"/>
<path class="st6" d="M512,191.8c0-0.1,0-0.2,0-0.3c0-0.7-0.2-1.4-0.4-2c0,0,0-0.1,0-0.1c0,0,0-0.1,0-0.1c-0.1-0.3-0.3-0.6-0.4-1
	c0,0,0-0.1-0.1-0.1c-0.1-0.3-0.3-0.5-0.5-0.8c0-0.1-0.1-0.1-0.1-0.2c-0.2-0.3-0.4-0.5-0.6-0.7c0-0.1-0.1-0.1-0.2-0.1
	c-0.2-0.2-0.4-0.4-0.7-0.6c0,0-0.1-0.1-0.1-0.1c-0.3-0.2-0.6-0.4-0.9-0.5c-0.1,0-0.1-0.1-0.2-0.1c-0.3-0.2-0.6-0.3-0.9-0.4
	c0,0,0,0,0,0c-0.3-0.1-0.7-0.2-1-0.3c-0.1,0-0.1,0-0.2,0c-0.3-0.1-0.7-0.1-1-0.1c-62.8-1.6-144.7,13.5-186.1,60.8
	c-18.1,20.7-26.5,46.9-34.6,72.3c-0.7,2.1-1.3,4.2-2,6.2c0,0.1-0.1,0.2-0.1,0.3l-12.7,45c-1.1,4,1.2,8.1,5.2,9.3
	c0.7,0.2,1.4,0.3,2,0.3c3.3,0,6.3-2.2,7.2-5.5l11.8-41.8c14.4-6.7,26-9.9,41.6-14.1c8.1-2.2,17.3-4.7,28.4-8.1
	c24.1-7.4,70.2-38.4,91.5-61.3c18.6-20.1,34.2-35,52.3-50c0,0,0,0,0.1-0.1c0.3-0.2,0.5-0.5,0.7-0.7c0,0,0,0,0,0
	c0.2-0.3,0.4-0.5,0.6-0.8c0-0.1,0.1-0.1,0.1-0.2c0.4-0.6,0.6-1.2,0.8-1.9c0-0.1,0-0.1,0.1-0.2c0.1-0.3,0.2-0.7,0.2-1c0,0,0,0,0,0
	c0-0.2,0-0.5,0.1-0.7C512,192,512,191.9,512,191.8z M329.9,255c17.5-19.9,44.2-35,79.6-44.7c9.5-2.6,19.5-4.8,29.9-6.5
	c-26.3,12.7-51.4,28.7-65.5,38.1c-22.7,15.1-47.1,33.5-65.2,49.8C314.1,278.3,320.5,265.7,329.9,255z M446,237.5
	c-20.7,22.4-65.3,51.2-84.8,57.2c-10.9,3.4-20,5.8-28,8c-7.2,2-13.8,3.8-20.3,5.8c2.9-2.8,6.3-5.9,10.4-9.4
	c16.2-14.1,37.2-30,59.1-44.6c37.9-25.3,72.2-43.1,97.3-50.8C468.6,213.7,457.9,224.6,446,237.5z"/>
</svg>
