<?xml version="1.0" encoding="utf-8"?>
<!-- Generator: Adobe Illustrator 23.0.3, SVG Export Plug-In . SVG Version: 6.00 Build 0)  -->
<svg version="1.1" id="Capa_1" xmlns="http://www.w3.org/2000/svg" xmlns:xlink="http://www.w3.org/1999/xlink" x="0px" y="0px"
	 viewBox="0 0 512 512" style="enable-background:new 0 0 512 512;" xml:space="preserve">
<style type="text/css">
	.st0{display:none;}
	.st1{display:none;fill:#202225;}
	.st2{fill:#2D2F32;}
	.st3{fill:#FFFDF5;}
	.st4{fill:none;stroke:#2875BB;stroke-width:20;stroke-miterlimit:10;}
	.st5{fill:none;stroke:#2875BB;stroke-width:20;stroke-linejoin:round;stroke-miterlimit:10;}
	.st6{fill:#2D2F32;stroke:#2875BB;stroke-width:20;stroke-miterlimit:10;}
</style>
<path id="_x30_6-Movie_Clapper" class="st0" d="M111.4,216.9c-0.9-7.7-3.7-14.9-7.8-21.1L474,72.1l-19.4-58.2
	c-2.8-8.5-12-13-20.4-10.2L31.2,138.2c-8.5,2.8-13,12-10.2,20.4l9.5,28.6c-9.5,8.8-15.5,21.4-15.5,35.4c0,18.1,10,33.9,24.8,42.2
	V493c0,8.9,7.2,16.2,16.2,16.2h424.8c8.9,0,16.2-7.2,16.2-16.2V216.9H111.4z M347.5,51.6l49-16.4L384.7,83l-49,16.4L347.5,51.6z
	 M226.3,92.1l49-16.4l-11.8,47.7l-49,16.4L226.3,92.1z M63.4,247.3c-13.6,0-24.6-11.1-24.6-24.6c0-13.6,11.1-24.6,24.6-24.6
	C77,198,88,209.1,88,222.6C88,236.2,77,247.3,63.4,247.3z M105.2,132.5l49-16.4l-11.8,47.7l-49,16.4L105.2,132.5z M153.4,271.5
	h-51.7l26.3-41.5h51.7L153.4,271.5z M255.7,229.9h51.7l-26.3,41.5h-51.7L255.7,229.9z M243,430.5V321l87.2,54.7L243,430.5z
	 M408.8,271.5h-51.7l26.3-41.5h51.7L408.8,271.5z"/>
<rect y="0" class="st1" width="512" height="512"/>
<g>
	<path class="st2" d="M488.3,215.3c0,0,0,262.2,0,269.9s-1.8,8.9-7.7,8.9c-5.9,0-421.9,0-429,0s-9.5-2.4-9.5-7.1
		c0-4.7,0-271.7,0-271.7H488.3z"/>
	<polygon class="st3" points="102.4,215.8 63.9,270.3 108.3,272 145.1,218.5 	"/>
	<polygon class="st3" points="206.9,215.8 168.4,270.3 212.8,272 249.6,218.5 	"/>
	<polygon class="st3" points="412,215.8 373.6,270.3 418,272 454.7,218.5 	"/>
	<polygon class="st3" points="311.6,215.8 273.1,270.3 317.5,272 354.2,218.5 	"/>
	<path class="st4" d="M488.3,215.3c0,0,0,262.2,0,269.9s-1.8,8.9-7.7,8.9c-5.9,0-421.9,0-429,0s-9.5-2.4-9.5-7.1
		c0-4.7,0-271.7,0-271.7H488.3z"/>
	<line class="st4" x1="42.1" y1="272.5" x2="488.3" y2="272.5"/>
	<line class="st4" x1="462" y1="215.3" x2="425.2" y2="272.5"/>
	<line class="st4" x1="409.9" y1="215.3" x2="373.1" y2="272.5"/>
	<line class="st4" x1="357.8" y1="215.3" x2="321.1" y2="272.5"/>
	<line class="st4" x1="305.8" y1="215.3" x2="269" y2="272.5"/>
	<line class="st4" x1="253.4" y1="215.3" x2="216.6" y2="272.5"/>
	<line class="st4" x1="201.3" y1="215.3" x2="164.5" y2="272.5"/>
	<line class="st4" x1="149.2" y1="215.3" x2="112.4" y2="272.5"/>
	<line class="st4" x1="97.1" y1="215.3" x2="60.4" y2="272.5"/>
	<path class="st5" d="M229.4,323.9l101.6,61.4l-101.6,61.4V323.9z"/>
</g>
<g>
	<path class="st2" d="M456.3,74.2L42.1,215.3c0,0-15.6-46.5-17.5-51.7c-1.9-5.2-0.7-8.8,3.6-10.3c4.3-1.5,392.7-132.7,397.9-134.4
		c5.3-1.8,9.6-1.2,11,2.7C437.9,23.4,456.3,74.2,456.3,74.2z"/>
	<polygon class="st3" points="70.1,139.1 54.3,210 100.8,192.9 115.4,123.8 	"/>
	<polygon class="st3" points="373.7,35.8 357.8,106.6 404.4,89.5 419,20.5 	"/>
	<polygon class="st3" points="272.7,74.2 256.8,145.1 303.4,128 317.9,58.9 	"/>
	<polygon class="st3" points="170.6,105.5 154.7,176.3 201.3,159.2 215.9,90.2 	"/>
	<path class="st4" d="M456.3,74.2L42.1,215.3c0,0-15.6-46.5-17.5-51.7c-1.9-5.2-0.7-8.8,3.6-10.3c4.3-1.5,392.7-132.7,397.9-134.4
		c5.3-1.8,9.6-1.2,11,2.7C437.9,23.4,456.3,74.2,456.3,74.2z"/>
	<line class="st6" x1="422.1" y1="20.5" x2="406.2" y2="90.2"/>
	<line class="st6" x1="371.8" y1="37.6" x2="356" y2="107.3"/>
	<line class="st6" x1="321.6" y1="54.7" x2="305.7" y2="124.4"/>
	<line class="st6" x1="271.4" y1="71.8" x2="255.5" y2="141.5"/>
	<line class="st6" x1="220.8" y1="89" x2="205" y2="158.7"/>
	<line class="st6" x1="170.6" y1="106.1" x2="154.7" y2="175.8"/>
	<path class="st6" d="M120.4,123.2l-15.9,69.7L120.4,123.2z"/>
	<path class="st6" d="M54.3,210l15.9-69.7L54.3,210z"/>
</g>
</svg>
