<?xml version="1.0" encoding="utf-8"?>
<!-- Generator: Adobe Illustrator 23.0.3, SVG Export Plug-In . SVG Version: 6.00 Build 0)  -->
<svg version="1.1" id="Layer_1" xmlns="http://www.w3.org/2000/svg" xmlns:xlink="http://www.w3.org/1999/xlink" x="0px" y="0px"
	 viewBox="0 0 512 512" style="enable-background:new 0 0 512 512;" xml:space="preserve">
<style type="text/css">
	.st0{display:none;fill:#202225;}
	.st1{display:none;fill:#FFFDF5;}
	.st2{fill:#2875BB;}
	.st3{display:none;fill:#2875BB;}
</style>
<rect class="st0" width="512" height="512"/>
<rect class="st1" width="512" height="512"/>
<path class="st1" d="M252.8,275.1v60.8h-234V49h381.3v203.7H275.2C262.8,252.7,252.8,262.7,252.8,275.1z"/>
<g id="Vdo_edit-5">
	<path class="st2" d="M188.1,230.9c2.5,1.4,5.6,1.4,8.1-0.1l53-32c3.8-2.3,5-7.2,2.7-11c-0.7-1.1-1.6-2-2.7-2.7l-53-32
		c-3.8-2.3-8.7-1.1-11,2.7c-0.8,1.3-1.2,2.7-1.2,4.1v64C184,226.8,185.6,229.4,188.1,230.9L188.1,230.9z M200,174.1l29.5,17.8
		L200,209.7V174.1z"/>
	<path class="st2" d="M208,263.9c39.8,0,72-32.2,72-72s-32.2-72-72-72s-72,32.2-72,72C136,231.6,168.3,263.8,208,263.9z M208,135.9
		c30.9,0,56,25.1,56,56s-25.1,56-56,56s-56-25.1-56-56C152,161,177.1,135.9,208,135.9z"/>
	<path class="st3" d="M48,295.9c-4.4,0-8,3.6-8,8s3.6,8,8,8h64c4.4,0,8-3.6,8-8s-3.6-8-8-8H48z"/>
	<path class="st3" d="M136,295.9c-4.4,0-8,3.6-8,8s3.6,8,8,8h8c4.4,0,8-3.6,8-8s-3.6-8-8-8H136z"/>
	<path class="st2" d="M400,279.9v8H288c-4.4,0-8,3.6-8,8s3.6,8,8,8h112v8c0,4.4,3.6,8,8,8h24c4.4,0,8-3.6,8-8v-8h56c4.4,0,8-3.6,8-8
		s-3.6-8-8-8h-56v-8c0-4.4-3.6-8-8-8h-24C403.6,271.9,400,275.5,400,279.9z M416,287.9h8v16h-8V287.9z"/>
	<path class="st2" d="M496,367.9h-56v-8c0-4.4-3.6-8-8-8h-24c-4.4,0-8,3.6-8,8v8H288c-4.4,0-8,3.6-8,8s3.6,8,8,8h112v8
		c0,4.4,3.6,8,8,8h24c4.4,0,8-3.6,8-8v-8h56c4.4,0,8-3.6,8-8S500.4,367.9,496,367.9z M424,383.9h-8v-16h8V383.9z"/>
	<path class="st2" d="M352,359.9h24c4.4,0,8-3.6,8-8v-8h72c4.4,0,8-3.6,8-8s-3.6-8-8-8h-72v-8c0-4.4-3.6-8-8-8h-24c-4.4,0-8,3.6-8,8
		v8h-56c-4.4,0-8,3.6-8,8s3.6,8,8,8h56v8C344,356.3,347.6,359.9,352,359.9z M360,327.9h8v16h-8V327.9z"/>
	<path class="st2" d="M496,327.9h-16c-4.4,0-8,3.6-8,8s3.6,8,8,8h16c4.4,0,8-3.6,8-8S500.4,327.9,496,327.9z"/>
	<g>
		<path class="st2" d="M256,327.9H79.6l8.4,16h168c4.4,0,8-3.6,8-8S260.4,327.9,256,327.9z"/>
		<path class="st2" d="M384,39.9H32c-13.3,0-24,10.7-24,24v256c0,13.3,10.7,24,24,24h29l-8.8-16H32c-4.4,0-8-3.6-8-8v-256
			c0-4.4,3.6-8,8-8h352c4.4,0,8,3.6,8,8v184c0,4.4,3.6,8,8,8s8-3.6,8-8v-184C408,50.6,397.3,39.9,384,39.9z"/>
	</g>
</g>
<path class="st2" d="M148.1,348.1l-34.8,48.7l14.7,29.5c9.8-8.9,25-8.1,33.9,1.7c8.9,9.8,8.1,25-1.7,33.9c-9.8,8.9-25,8.1-33.9-1.7
	c-3.4-3.8-5.6-8.6-6.1-13.7L104,414l-16.2,32.5c-1.3,13.2-13,22.8-26.2,21.5c-13.2-1.3-22.8-13-21.5-26.2
	c1.3-13.2,13-22.8,26.2-21.5c5.1,0.5,9.9,2.6,13.7,6.1l15-30L57,328c-2.3-3.8-1-8.7,2.8-11c3.8-2.3,8.7-1,11,2.8
	c0.1,0.1,0.2,0.3,0.2,0.4l33.6,60.5l23.7-32.7 M152,444.1c0-4.4-3.6-8-8-8s-8,3.6-8,8s3.6,8,8,8S152,448.5,152,444.1z M56,444.1
	c0,4.4,3.6,8,8,8s8-3.6,8-8s-3.6-8-8-8S56,439.6,56,444.1z"/>
</svg>
