<?xml version="1.0" encoding="utf-8"?>
<!-- Generator: Adobe Illustrator 23.0.3, SVG Export Plug-In . SVG Version: 6.00 Build 0)  -->
<svg version="1.1" id="Capa_1" xmlns="http://www.w3.org/2000/svg" xmlns:xlink="http://www.w3.org/1999/xlink" x="0px" y="0px"
	 viewBox="0 0 512 512" style="enable-background:new 0 0 512 512;" xml:space="preserve">
<style type="text/css">
	.st0{display:none;fill:#202225;}
	.st1{display:none;fill:#FFFDF5;}
	.st2{display:none;}
	.st3{display:inline;fill:#2875BB;}
	.st4{fill:none;stroke:#2875BB;stroke-width:20;stroke-linecap:round;stroke-miterlimit:10;}
</style>
<rect class="st0" width="512" height="512"/>
<rect class="st1" width="512" height="512"/>
<g class="st2">
	<path class="st3" d="M250,351h12c57.9,0,105-47.1,105-105V106C367,47.6,319.9,0,262,0h-12c-57.8,0-104.9,47.4-105,105.8V246
		C145,303.9,192.1,351,250,351z M250,30h12c38.3,0,70,29.3,74.5,67H312c-8.3,0-15,6.7-15,15s6.7,15,15,15h25v34h-41
		c-8.3,0-15,6.7-15,15s6.7,15,15,15h41v34h-25c-8.3,0-15,6.7-15,15s6.7,15,15,15h24.4c-4.5,37.1-36.1,66-74.4,66h-12
		c-38.3,0-70-28.9-74.4-66H200c8.3,0,15-6.7,15-15s-6.7-15-15-15h-25v-34h41c8.3,0,15-6.7,15-15s-6.7-15-15-15h-41v-34h25
		c8.3,0,15-6.7,15-15s-6.7-15-15-15h-24.5C180,59.3,211.7,30,250,30z"/>
	<path class="st3" d="M431,240c0-8.3-6.7-15-15-15s-15,6.7-15,15c0,80-65,145-145,145s-145-65-145-145c0-8.3-6.7-15-15-15
		s-15,6.7-15,15c0,91.4,70.5,166.7,160,174.4V482h-81c-8.3,0-15,6.7-15,15s6.7,15,15,15h192c8.3,0,15-6.7,15-15s-6.7-15-15-15h-81
		v-67.6C360.5,406.7,431,331.4,431,240z"/>
</g>
<path class="st4" d="M257.2,14c64.5,0,94,57.3,94,83c0,33.3,0,113.4,0,159c0,21.3-26,81-95.2,81c-65.4,0-95.2-54.4-95.2-81
	c0-33.3,0-105.7,0-159C160.8,72,190.6,14,257.2,14z"/>
<path class="st4" d="M112.5,249c0,72.9,59.1,142.2,143.4,142.2S398,319.3,398,249"/>
<line class="st4" x1="156.9" y1="496.4" x2="351.2" y2="496.4"/>
<line class="st4" x1="256" y1="400.4" x2="256" y2="496.4"/>
<line class="st4" x1="284.4" y1="239.8" x2="227.6" y2="239.8"/>
<line class="st4" x1="284.4" y1="112.4" x2="227.6" y2="112.4"/>
<line class="st4" x1="309.3" y1="175.5" x2="202.7" y2="175.5"/>
</svg>
